<svg width="163" height="40" viewBox="0 0 163 40" fill="none" xmlns="http://www.w3.org/2000/svg">
<path d="M72.5268 12.5C71.1411 12.5 69.864 12.8332 68.7006 13.4996C67.5373 14.166 66.6194 15.0773 65.947 16.2298C65.2733 17.3823 64.9371 18.6467 64.9371 20.0205C64.9371 21.3943 65.2733 22.6525 65.947 23.7913C66.6194 24.9302 67.5424 25.834 68.7122 26.5004C69.8819 27.1668 71.1538 27.5 72.5268 27.5C74.53 27.5 76.2379 26.8249 77.6403 25.4772C77.7592 25.3591 77.8193 25.2099 77.8193 25.0408C77.8193 24.8966 77.7656 24.7673 77.662 24.6666L76.3926 23.3674C76.1702 23.1473 75.8941 23.1473 75.632 23.3512C74.6924 24.0984 73.6863 24.4702 72.6086 24.4702C71.7815 24.4702 71.0324 24.2663 70.3574 23.8572C69.6799 23.447 69.1532 22.8987 68.7722 22.2087C68.3913 21.5174 68.1995 20.769 68.1995 19.9584C68.1995 18.7051 68.6227 17.6359 69.4728 16.742C70.3191 15.8506 71.3546 15.408 72.5882 15.408C73.1392 15.408 73.6837 15.5124 74.2232 15.7201C74.764 15.9289 75.2293 16.2087 75.623 16.5593C75.871 16.7868 76.1548 16.7868 76.3901 16.553L77.6441 15.27C77.7592 15.1581 77.8193 15.0164 77.8193 14.8585C77.8193 14.6931 77.7464 14.5489 77.6109 14.4345C76.8733 13.7855 76.0999 13.2994 75.2932 12.9799C74.484 12.6591 73.561 12.5 72.5268 12.5ZM79.7727 23.7913C80.4451 24.9302 81.3566 25.8328 82.5045 26.4992C83.6551 27.1668 84.9245 27.5 86.3115 27.5C87.6973 27.5 88.9706 27.1668 90.1275 26.5004C91.2831 25.834 92.1985 24.9302 92.8709 23.7913C93.5433 22.6525 93.8808 21.3943 93.8808 20.0205C93.8808 18.6467 93.5433 17.3823 92.8709 16.2286C92.1985 15.0773 91.2831 14.166 90.1275 13.4996C88.9706 12.8332 87.696 12.5 86.3115 12.5C84.9245 12.5 83.6551 12.8332 82.5045 13.5008C81.3566 14.1672 80.4438 15.0773 79.7714 16.2298C79.099 17.3823 78.7615 18.6467 78.7615 20.0205C78.7615 21.3943 79.099 22.6525 79.7714 23.7913H79.7727ZM81.8001 20.0205C81.8001 19.2124 82.0034 18.4615 82.4112 17.7652C82.819 17.0678 83.3662 16.5182 84.0565 16.1142C84.7468 15.7114 85.4959 15.5099 86.3115 15.5099C87.1259 15.5099 87.8801 15.7114 88.5755 16.1142C89.2735 16.5182 89.8245 17.0678 90.2323 17.7652C90.6401 18.4615 90.8434 19.2124 90.8434 20.0205C90.8434 20.8286 90.6388 21.5709 90.2323 22.2534C89.8245 22.9372 89.2735 23.4818 88.5755 23.8858C87.8801 24.2886 87.1259 24.4901 86.3115 24.4901C85.0613 24.4901 84.0015 24.0524 83.1207 23.1722C82.2386 22.2932 81.8001 21.2451 81.8001 20.0205ZM99.2142 26.7267V17.9878H99.0288L98.9329 18.1121L107.342 27.2973C107.479 27.4341 107.643 27.5 107.828 27.5H108.116C108.256 27.5 108.387 27.4503 108.5 27.3558C108.626 27.2538 108.691 27.1133 108.691 26.9505V13.2746C108.691 13.1316 108.635 12.9998 108.528 12.8854C108.418 12.7648 108.278 12.7027 108.116 12.7027H106.229C106.07 12.7027 105.931 12.7586 105.82 12.868C105.71 12.9774 105.653 13.1167 105.653 13.2733V21.6666H105.839L105.933 21.541L97.5651 12.7002C97.4296 12.5659 97.2659 12.5 97.0793 12.5H96.7725C96.6191 12.5 96.481 12.5497 96.3711 12.6492C96.256 12.7524 96.1972 12.8904 96.1972 13.0495V26.7267C96.1972 26.8833 96.2547 27.0226 96.3647 27.132C96.4746 27.2414 96.6152 27.2973 96.7738 27.2973H98.6402C98.7974 27.2973 98.9368 27.2414 99.048 27.132C99.1579 27.0226 99.2142 26.8833 99.2142 26.7267ZM114.865 26.7267V17.9878H114.68L114.583 18.1121L122.992 27.2973C123.13 27.4341 123.292 27.5 123.478 27.5H123.765C123.906 27.5 124.036 27.4503 124.151 27.3558C124.275 27.2538 124.341 27.1133 124.341 26.9505V13.2746C124.341 13.1316 124.284 12.9998 124.18 12.8854C124.07 12.7661 123.928 12.7039 123.765 12.7039H121.88C121.723 12.7039 121.582 12.7598 121.472 12.8692C121.362 12.9787 121.306 13.1179 121.306 13.2746V21.6666H121.49L121.584 21.541L113.215 12.7002C113.081 12.5659 112.917 12.5 112.732 12.5H112.424C112.269 12.5 112.132 12.5497 112.022 12.6492C111.907 12.7524 111.848 12.8904 111.848 13.0495V26.7267C111.848 26.8833 111.905 27.0226 112.015 27.132C112.126 27.2414 112.265 27.2973 112.424 27.2973H114.29C114.449 27.2973 114.588 27.2414 114.699 27.132C114.809 27.0226 114.865 26.8833 114.865 26.7267ZM130.537 21.3023H135.418C135.575 21.3023 135.716 21.2451 135.826 21.1357C135.936 21.0263 135.992 20.8883 135.992 20.7317V19.0446C135.992 18.9016 135.937 18.771 135.831 18.6567C135.721 18.5373 135.579 18.4751 135.418 18.4751H130.537V15.5099H136.423C136.58 15.5099 136.72 15.4528 136.83 15.3433C136.94 15.2352 136.997 15.0959 136.997 14.9393V13.2746C136.997 13.1316 136.942 12.9998 136.835 12.8854C136.726 12.7661 136.584 12.7039 136.423 12.7039H128.075C127.916 12.7039 127.777 12.7598 127.666 12.8692C127.556 12.9787 127.5 13.1179 127.5 13.2746V26.7267C127.5 26.8833 127.556 27.0226 127.666 27.132C127.777 27.2414 127.916 27.2973 128.075 27.2973H136.423C136.58 27.2973 136.72 27.2414 136.83 27.132C136.94 27.0226 136.997 26.8833 136.997 26.7267V25.0607C136.997 24.9177 136.942 24.786 136.835 24.6716C136.726 24.5535 136.584 24.4901 136.423 24.4901H130.537V21.3023ZM145.879 12.5C144.493 12.5 143.216 12.8332 142.053 13.4996C140.889 14.166 139.971 15.0773 139.299 16.2298C138.625 17.3823 138.289 18.6467 138.289 20.0205C138.289 21.3943 138.625 22.6525 139.299 23.7913C139.971 24.9302 140.894 25.834 142.064 26.5004C143.234 27.1668 144.506 27.5 145.879 27.5C147.882 27.5 149.59 26.8249 150.992 25.4772C151.111 25.3591 151.171 25.2099 151.171 25.0408C151.171 24.8966 151.117 24.7673 151.015 24.6666L149.745 23.3674C149.522 23.1473 149.246 23.1473 148.984 23.3512C148.044 24.0984 147.038 24.4702 145.961 24.4702C145.133 24.4702 144.384 24.2663 143.709 23.8572C143.032 23.447 142.505 22.8987 142.124 22.2087C141.743 21.5174 141.553 20.769 141.553 19.9584C141.553 18.7051 141.975 17.6359 142.825 16.742C143.671 15.8506 144.706 15.408 145.94 15.408C146.491 15.408 147.036 15.5124 147.576 15.7201C148.116 15.9289 148.581 16.2087 148.975 16.5593C149.223 16.7868 149.507 16.7868 149.742 16.553L150.996 15.27C151.111 15.1581 151.171 15.0164 151.171 14.8585C151.171 14.6931 151.098 14.5489 150.963 14.4345C150.225 13.7855 149.452 13.2994 148.645 12.9799C147.836 12.6591 146.913 12.5 145.879 12.5ZM162.425 15.5087C162.583 15.5087 162.723 15.4528 162.834 15.3433C162.944 15.2352 163 15.0959 163 14.9393V13.2746C163 13.1316 162.944 12.9998 162.839 12.8854C162.729 12.7661 162.587 12.7039 162.425 12.7039H153.462C153.304 12.7039 153.164 12.7598 153.053 12.8692C152.943 12.9787 152.887 13.1179 152.887 13.2746V14.9405C152.887 15.0835 152.943 15.2153 153.048 15.3297C153.159 15.4478 153.3 15.5112 153.462 15.5112H156.415V26.7279C156.415 26.8846 156.471 27.0238 156.581 27.1332C156.692 27.2426 156.832 27.2986 156.99 27.2986H158.898C159.055 27.2986 159.196 27.2426 159.305 27.1332C159.415 27.0238 159.472 26.8846 159.472 26.7279V15.5099H162.425V15.5087Z" fill="#F2F3F5"/>
<path d="M1.21957 12.7075C1.33207 12.7075 1.42667 12.7498 1.50337 12.8319C1.58007 12.9164 1.61842 13.0059 1.61842 13.1042V19.1874H10.1554V13.1042C10.1554 12.9923 10.1938 12.899 10.2705 12.8219C10.3472 12.7461 10.443 12.7075 10.5543 12.7075H11.375C11.4862 12.7075 11.5808 12.7498 11.6588 12.8319C11.7355 12.9164 11.7738 13.0059 11.7738 13.1042V26.8957C11.7738 27.0076 11.7316 27.1008 11.6473 27.1767C11.5642 27.2538 11.4721 27.2911 11.375 27.2911H10.5543C10.443 27.2911 10.3484 27.25 10.2705 27.1667C10.1938 27.0834 10.1554 26.9927 10.1554 26.8957V20.5824H1.61842V26.8957C1.61842 27.0076 1.58007 27.1008 1.50337 27.1767C1.42667 27.2538 1.33207 27.2911 1.21957 27.2911H0.398853C0.287634 27.2911 0.193035 27.2538 0.115054 27.1767C0.0383513 27.1008 0 27.0063 0 26.8957V13.1042C0 12.9923 0.0421864 12.899 0.126559 12.8219C0.209654 12.7461 0.301697 12.7075 0.398853 12.7075H1.21957ZM15.2638 12.7075C15.3904 12.7075 15.5029 12.7697 15.6 12.8953L19.8481 18.7075L24.0948 12.8953C24.1932 12.771 24.3045 12.7088 24.431 12.7088H25.4192C25.5458 12.7088 25.6442 12.7424 25.7132 12.812C25.7835 12.8816 25.8193 12.9724 25.8193 13.083C25.8193 13.1663 25.7976 13.2422 25.7554 13.3118L20.6253 20.2492V26.8957C20.6253 27.0076 20.587 27.1008 20.5103 27.1767C20.4335 27.2538 20.3377 27.2911 20.2265 27.2911H19.4057C19.2945 27.2911 19.1999 27.2538 19.1219 27.1767C19.0452 27.1008 19.0069 27.0063 19.0069 26.8957V20.2703L13.9394 13.3118C13.8972 13.2571 13.8755 13.1874 13.8755 13.1042C13.8755 12.9923 13.9113 12.899 13.9816 12.8219C14.0519 12.7461 14.1503 12.7075 14.2756 12.7075H15.2638ZM32.9258 12.7075C34.2144 12.7075 35.3215 13.1589 36.247 14.0627C37.1726 14.9653 37.6354 16.0482 37.6354 17.3126C37.6354 18.6044 37.1726 19.7084 36.247 20.6247C35.3215 21.5409 34.2221 21.9997 32.9463 21.9997H29.4768V26.8957C29.4768 27.0076 29.4346 27.1008 29.3515 27.1767C29.2671 27.2538 29.1764 27.2911 29.0779 27.2911H28.2789C28.1664 27.2911 28.0718 27.2538 27.9951 27.1767C27.9184 27.1008 27.8801 27.0063 27.8801 26.8957V13.1042C27.8801 12.9923 27.9184 12.899 27.9951 12.8219C28.0718 12.7461 28.1664 12.7075 28.2789 12.7075H32.9258ZM49.0308 12.7075C49.142 12.7075 49.2366 12.7498 49.3146 12.8319C49.3913 12.9164 49.4297 13.0059 49.4297 13.1042V13.7084C49.4297 13.819 49.3913 13.9123 49.3146 13.9894C49.2379 14.0652 49.142 14.1037 49.0308 14.1037H41.9665V19.1874H48.0004C48.1129 19.1874 48.2075 19.2247 48.2842 19.3018C48.3609 19.3777 48.3993 19.4722 48.3993 19.5828V20.187C48.3993 20.2989 48.3609 20.3922 48.2842 20.468C48.2075 20.5451 48.1129 20.5824 48.0004 20.5824H41.9665V25.8961H49.0308C49.142 25.8961 49.2366 25.9334 49.3146 26.0105C49.3913 26.0863 49.4297 26.1808 49.4297 26.2915V26.8957C49.4297 27.0076 49.3913 27.1008 49.3146 27.1767C49.2379 27.2538 49.142 27.2911 49.0308 27.2911H40.7469C40.6344 27.2911 40.5398 27.2538 40.4631 27.1767C40.3864 27.1008 40.3481 27.0063 40.3481 26.8957V13.1042C40.3481 12.9923 40.3864 12.899 40.4631 12.8219C40.5398 12.7461 40.6344 12.7075 40.7469 12.7075H49.0308ZM58.3029 12.7075C59.5646 12.7075 60.6423 13.139 61.541 14.0005C62.4371 14.8609 62.8858 15.909 62.8858 17.146C62.8858 18.0909 62.5982 18.94 62.0242 19.6972C61.4489 20.4556 60.6998 21.02 59.7743 21.3955L62.6544 26.6868C62.6966 26.7428 62.7184 26.8112 62.7184 26.8957C62.7184 27.0076 62.6826 27.1008 62.6123 27.1767C62.5432 27.2538 62.4371 27.2911 62.2978 27.2911H61.2879C61.0923 27.2911 60.9376 27.1866 60.8251 26.979L58.0919 21.5832H54.0765V26.8957C54.0765 27.0076 54.0382 27.1008 53.9615 27.1767C53.8848 27.2538 53.7889 27.2911 53.6764 27.2911H52.8583C52.7445 27.2911 52.6499 27.2538 52.5732 27.1767C52.4965 27.1008 52.4581 27.0063 52.4581 26.8957V13.1042C52.4581 12.9923 52.4965 12.899 52.5732 12.8219C52.6499 12.7461 52.7445 12.7075 52.857 12.7075H58.3029ZM32.8197 14.2915H29.4768V20.4581H32.8197C33.7031 20.4581 34.456 20.1597 35.0799 19.5629C35.7037 18.9649 36.0157 18.2015 36.0157 17.2703C36.0157 16.3814 35.7076 15.6628 35.0914 15.1145C34.4739 14.565 33.7171 14.2915 32.8197 14.2915ZM58.198 14.2293H54.1187V20.2082H58.1968C59.0098 20.2082 59.718 19.9123 60.3214 19.323C60.9235 18.7324 61.2252 18.0138 61.2252 17.1659C61.2252 16.3752 60.9235 15.6864 60.3214 15.1033C59.718 14.5202 59.0098 14.2293 58.198 14.2293Z" fill="#F2F3F5"/>
</svg>
