<svg width="108" height="40" viewBox="0 0 108 40" fill="none" xmlns="http://www.w3.org/2000/svg">
<path d="M44.1989 15.6141H39.0666L34.6036 21.4108V10.8987H30.0895V30.1151H34.6047V24.8084L38.8637 30.1151H44.4541L38.4046 22.839L44.1989 15.6141Z" fill="#F2F3F5"/>
<path d="M54.4017 16.501C53.9426 16.2064 53.4323 16.012 52.8152 15.8176C52.0464 15.5721 51.2275 15.4708 50.3541 15.4708C49.3313 15.4708 48.2999 15.6652 47.3828 16.0621C46.4856 16.439 45.6692 16.9722 44.9752 17.6346C44.2918 18.3248 43.7367 19.1221 43.3341 19.9918C42.9211 20.9244 42.7111 21.9281 42.717 22.9413C42.717 23.9715 42.9199 24.9516 43.3341 25.8898C43.7274 26.7495 44.2839 27.5317 44.9752 28.1968C45.6702 28.8578 46.4863 29.3905 47.3828 29.7682C48.3174 30.1677 49.3309 30.3694 50.3541 30.3596C51.2275 30.3596 52.0475 30.2583 52.8152 30.0138C53.3778 29.8653 53.9131 29.6341 54.4017 29.3283V30.1652H58.8647V15.614H54.4017V16.501ZM49.2779 26.1773C48.8637 25.9829 48.4579 25.7373 48.1494 25.4417C47.8408 25.0959 47.5856 24.7572 47.3828 24.3091C47.1799 23.8702 47.1265 23.4221 47.1265 22.9321C47.1265 22.442 47.2333 22.0031 47.3828 21.555C47.5856 21.1151 47.8419 20.7181 48.1494 20.4225C48.459 20.1268 48.8647 19.8311 49.2779 19.6869C49.6933 19.4925 50.2047 19.3912 50.7161 19.3912C51.2275 19.3912 51.7389 19.4935 52.1532 19.6879C52.6123 19.8823 53.0266 20.1268 53.3351 20.4225C53.696 20.7192 53.9522 21.1079 54.1551 21.555C54.358 21.9949 54.4647 22.442 54.4647 22.9321C54.4647 23.4231 54.358 23.9122 54.2085 24.3091C54.0056 24.7491 53.7494 25.0959 53.4398 25.4417C53.0789 25.7885 52.7265 26.034 52.2589 26.1773C51.2798 26.5231 50.1513 26.5742 49.2779 26.1773ZM66.5627 16.012C66.0512 16.3077 65.5398 16.6535 65.1256 17.0934V15.6232H60.6626V30.1151H65.179V23.4815C65.179 22.3489 65.4875 21.42 66.1046 20.7274C66.7218 20.0849 67.7446 19.7462 69.1294 19.7462H69.3856V15.4197H69.1294C68.2037 15.4197 67.3303 15.614 66.5627 16.012ZM76.916 16.012C76.4046 16.3077 75.8932 16.6535 75.4789 17.0934V15.6232H71.016V30.1151H75.5323V23.4815C75.5323 22.3489 75.8398 21.42 76.458 20.7274C77.0751 20.0849 78.0979 19.7462 79.4827 19.7462H79.739V15.4197H79.4827C78.556 15.4197 77.6837 15.614 76.916 16.012ZM93.9979 17.5323C93.2825 16.8479 92.4103 16.3077 91.4312 15.9107C90.4532 15.5128 89.377 15.3184 88.2036 15.3184C87.0227 15.3184 85.9465 15.5128 84.976 15.9107C83.998 16.3077 83.1331 16.8397 82.4103 17.5323C81.6869 18.2212 81.1116 19.0394 80.717 19.9406C80.3039 20.8733 80.0939 21.877 80.0998 22.8901C80.0998 23.9214 80.3027 24.9516 80.717 25.8396C81.1105 26.7414 81.686 27.5598 82.4103 28.248C83.1372 28.943 84.0124 29.4791 84.976 29.8194C85.9465 30.2163 87.0313 30.4107 88.2036 30.4107C89.3332 30.4107 90.4617 30.2163 91.4312 29.8194C92.4017 29.4224 93.2751 28.8894 93.9979 28.1968C94.7214 27.508 95.2967 26.6897 95.6912 25.7885C96.1043 24.8558 96.3143 23.8521 96.3084 22.839C96.3084 21.8087 96.1055 20.7775 95.6912 19.8905C95.3213 18.9913 94.7421 18.1847 93.9979 17.5323ZM86.7665 19.5437C87.2256 19.3493 87.6922 19.2981 88.2036 19.2981C88.7161 19.2981 89.2264 19.4004 89.6417 19.5437C90.1008 19.738 90.4617 19.9836 90.8226 20.2793C91.1322 20.625 91.3874 20.9637 91.5903 21.4118C91.7931 21.8507 91.8465 22.3407 91.8465 22.8819C91.8465 23.4221 91.7397 23.9122 91.5369 24.3521C91.334 24.792 91.0778 25.188 90.7169 25.4846C90.3815 25.8189 89.9801 26.086 89.536 26.2704C88.6093 26.6673 87.4808 26.6673 86.617 26.2704C86.1579 26.076 85.7959 25.8304 85.4874 25.4846C85.1788 25.1378 84.9236 24.7992 84.7208 24.3521C84.5542 23.8782 84.4677 23.3819 84.4645 22.8819C84.4645 22.3407 84.5713 21.8507 84.7208 21.4108C84.9236 20.9719 85.1799 20.5749 85.4874 20.2793C85.8931 19.9416 86.2988 19.6961 86.7665 19.5437ZM107.023 19.4935V15.614H103.434V11.9811H98.9712V15.5639H96.8721V19.4516H98.9712V25.0529C98.9712 26.7266 99.4303 27.9523 100.408 28.8383C101.335 29.6751 102.869 30.1151 104.871 30.1151H107.076V26.3809H105.18C104.563 26.3809 104.157 26.2785 103.901 26.033C103.644 25.8386 103.486 25.4417 103.486 24.8503V19.4424H107.023V19.4935ZM11.3409 10.9836C5.08004 10.9836 0 15.8514 0 21.8507C0 24.3685 0.898991 26.6837 2.40763 28.5262C2.52187 28.6695 2.63718 28.8055 2.75997 28.9406C2.94121 29.1489 3.13253 29.3489 3.33331 29.5401C5.50285 31.7458 8.24466 33.4278 11.3495 34.323C14.4111 33.4258 17.1746 31.7769 19.3657 29.5401L19.3838 29.5227C19.5771 29.3375 19.7532 29.1431 19.939 28.9396C20.0629 28.8055 20.1771 28.6613 20.2913 28.5262C21.8501 26.6215 22.6977 24.2712 22.699 21.8507C22.6819 15.8514 17.6019 10.9836 11.3409 10.9836ZM11.3409 26.0085C10.771 26.009 10.2065 25.9018 9.67979 25.6931C9.1531 25.4843 8.67454 25.1781 8.27151 24.7919C7.86848 24.4057 7.54888 23.9471 7.33102 23.4424C7.11316 22.9377 7.00132 22.3968 7.00188 21.8507C7.00132 21.3045 7.11316 20.7636 7.33102 20.2589C7.54888 19.7543 7.86848 19.2957 8.27151 18.9095C8.67454 18.5233 9.1531 18.2171 9.67979 18.0083C10.2065 17.7996 10.771 17.6924 11.3409 17.6929C11.9108 17.6925 12.4752 17.7998 13.0018 18.0086C13.5283 18.2174 14.0068 18.5237 14.4097 18.9099C14.8126 19.296 15.1321 19.7546 15.3499 20.2592C15.5677 20.7638 15.6795 21.3046 15.679 21.8507C15.6795 22.3968 15.5677 22.9376 15.3499 23.4422C15.1321 23.9468 14.8126 24.4053 14.4097 24.7915C14.0068 25.1777 13.5283 25.4839 13.0018 25.6928C12.4752 25.9016 11.9108 26.0089 11.3409 26.0085Z" fill="#F2F3F5"/>
<path d="M15.0363 10.7555C15.4081 10.6771 15.741 10.4794 15.9797 10.1952C16.2185 9.91093 16.3489 9.55715 16.3495 9.19228C16.3495 8.31346 15.6 7.59526 14.6839 7.59526C14.4277 7.59526 14.18 7.6546 13.9686 7.75588C13.8504 7.17105 13.5236 6.6438 13.0442 6.26452C12.5648 5.88524 11.9627 5.67753 11.341 5.677C10.7203 5.67767 10.1192 5.8856 9.64124 6.26502C9.16324 6.64444 8.83817 7.17163 8.72198 7.75588C8.50097 7.65358 8.26287 7.59526 8.00663 7.59526C7.09056 7.59526 6.34104 8.31346 6.34104 9.19228C6.34104 9.96163 6.90478 10.5949 7.65429 10.7555C8.84292 10.3611 10.0917 10.1585 11.3496 10.156C12.6457 10.156 13.8714 10.3668 15.0363 10.7555Z" fill="#F2F3F5"/>
</svg>
