<svg width="89" height="40" viewBox="0 0 89 40" fill="none" xmlns="http://www.w3.org/2000/svg">
<path fill-rule="evenodd" clip-rule="evenodd" d="M2.85667 12.5979C2.73977 12.7258 2.74751 12.9219 2.87032 13.0442L18.0498 28.151C18.1726 28.2733 18.3698 28.281 18.4983 28.1646C20.724 26.149 22.1211 23.2429 22.1211 20.012C22.1211 13.926 17.1637 8.99237 11.0484 8.99237C7.80207 8.99237 4.88199 10.3828 2.85667 12.5979ZM0.959471 15.4649C0.903377 15.588 0.931664 15.7323 1.02768 15.8279L15.2527 29.9848C15.3487 30.0804 15.4938 30.1086 15.6174 30.0527C15.9461 29.9044 16.2661 29.7406 16.5766 29.5621C16.7612 29.4561 16.7894 29.2055 16.6388 29.0555L1.96151 14.4485C1.81082 14.2985 1.55899 14.3266 1.45244 14.5103C1.27316 14.8193 1.10852 15.1378 0.959471 15.4649ZM0.0964837 19.5187C0.0298793 19.4523 -0.00555871 19.361 0.00071152 19.2675C0.0300776 18.8294 0.0851656 18.3984 0.164486 17.9758C0.212047 17.7224 0.52314 17.6345 0.706277 17.8168L13.2543 30.3047C13.4374 30.487 13.349 30.7966 13.0945 30.8439C12.6699 30.9229 12.2368 30.9777 11.7966 31.0069C11.7026 31.0132 11.6108 30.9779 11.5442 30.9116L0.0964837 19.5187ZM0.866521 22.5938C0.637906 22.3663 0.268971 22.5623 0.352697 22.8731C1.37278 26.6596 4.36894 29.6414 8.17364 30.6566C8.48592 30.7399 8.68295 30.3728 8.4543 30.1453L0.866521 22.5938ZM44.6092 15.0565C45.4029 15.0565 46.0462 14.4138 46.0462 13.6211C46.0462 12.8284 45.4029 12.1858 44.6092 12.1858C43.8156 12.1858 43.1723 12.8284 43.1723 13.6211C43.1723 14.4138 43.8156 15.0565 44.6092 15.0565ZM32.3006 27.5745V12.1866H34.8544V25.3231H41.7399V27.5745H32.3006ZM50.4767 21.2954V27.5745H48.0057V16.6687H50.4456V18.538L50.4767 18.5173C50.7247 17.9321 51.1247 17.4433 51.6762 17.0508C52.2273 16.6515 52.9303 16.4519 53.7854 16.4519C54.5435 16.4519 55.2324 16.6206 55.8531 16.9579C56.4734 17.2884 56.9694 17.7738 57.3416 18.414C57.7138 19.0544 57.9002 19.8393 57.9002 20.7687V27.5745H55.4291V21.1095C55.4291 20.2834 55.2084 19.6568 54.7675 19.2299C54.3331 18.7962 53.7506 18.5793 53.0202 18.5793C52.5515 18.5793 52.1242 18.6757 51.7379 18.8684C51.352 19.0612 51.0456 19.3573 50.8179 19.7566C50.5906 20.156 50.4767 20.6689 50.4767 21.2954ZM72.8507 27.3886C73.4158 27.6296 74.0638 27.7501 74.7942 27.7501C75.3937 27.7501 75.9071 27.6743 76.3344 27.5229C76.7622 27.3645 77.1137 27.1545 77.3895 26.8929C77.6718 26.6313 77.8958 26.3455 78.0615 26.0357H78.1029V27.5745H80.4704V20.0665C80.4704 19.5363 80.3669 19.0509 80.1603 18.6103C79.9532 18.1696 79.6535 17.7875 79.2605 17.4639C78.8746 17.1403 78.4059 16.8925 77.8544 16.7204C77.3033 16.5414 76.6826 16.4519 75.9937 16.4519C75.0492 16.4519 74.2323 16.6136 73.5434 16.9372C72.8606 17.254 72.3269 17.6808 71.9406 18.2179C71.5547 18.7548 71.3443 19.3608 71.31 20.0354H73.6982C73.726 19.7187 73.8361 19.4365 74.029 19.1886C74.222 18.9408 74.4841 18.748 74.8149 18.6103C75.1457 18.4657 75.5283 18.3934 75.9626 18.3934C76.3965 18.3934 76.7655 18.4657 77.069 18.6103C77.3786 18.7548 77.6168 18.9511 77.7819 19.1989C77.9476 19.4468 78.0304 19.736 78.0304 20.0665V20.1491C78.0304 20.397 77.9438 20.5794 77.772 20.6964C77.6064 20.8135 77.3236 20.8995 76.9241 20.9546C76.5311 21.0097 75.9937 21.0751 75.3109 21.1508C74.7528 21.2128 74.2154 21.3057 73.6982 21.4297C73.1815 21.5536 72.7194 21.7361 72.3128 21.977C71.9133 22.218 71.5961 22.5382 71.3617 22.9375C71.1274 23.3368 71.0102 23.8497 71.0102 24.4763C71.0102 25.1992 71.1754 25.8051 71.5062 26.2939C71.837 26.7758 72.2855 27.1408 72.8507 27.3886ZM76.8516 25.5606C76.4521 25.7741 75.9589 25.8808 75.3735 25.8808C74.7805 25.8808 74.3081 25.7569 73.9566 25.509C73.605 25.2543 73.4295 24.9066 73.4295 24.466C73.4295 24.1217 73.526 23.8429 73.7189 23.6294C73.9189 23.416 74.1805 23.2473 74.5048 23.1234C74.8285 22.9994 75.1801 22.9134 75.5594 22.8652C75.8346 22.8239 76.1038 22.7826 76.3659 22.7413C76.6276 22.6931 76.8723 22.6483 77.0996 22.607C77.3273 22.5588 77.5203 22.5106 77.6789 22.4624C77.844 22.4142 77.965 22.3626 78.0403 22.3075V23.5262C78.0403 23.953 77.9405 24.3454 77.7405 24.7035C77.5476 25.0546 77.2516 25.3403 76.8516 25.5606ZM82.6261 27.5745V16.6687H85.004V18.4657H85.0351C85.2351 17.8461 85.5485 17.3744 85.9758 17.0508C86.4101 16.7204 86.9786 16.5551 87.6816 16.5551C87.8543 16.5551 88.0092 16.562 88.147 16.5758C88.292 16.5827 88.4124 16.5895 88.5089 16.5964V18.8168C88.4195 18.803 88.2604 18.7859 88.0336 18.7652C87.8059 18.7445 87.5649 18.7342 87.3094 18.7342C86.9028 18.7342 86.5311 18.8271 86.1927 19.0131C85.8553 19.1989 85.5866 19.4847 85.3866 19.8702C85.1936 20.2489 85.0972 20.7274 85.0972 21.3057V27.5745H82.6261ZM43.3686 27.5745V16.6687H45.8396V27.5745H43.3686ZM62.0098 27.0891C62.8027 27.5779 63.7434 27.8224 64.8324 27.8224C65.6733 27.8224 66.4385 27.6709 67.1279 27.368C67.8239 27.0581 68.4027 26.6347 68.8648 26.0977C69.3265 25.5538 69.6262 24.9272 69.7641 24.2181H67.438C67.3345 24.5417 67.1655 24.8274 66.9312 25.0752C66.7039 25.3162 66.4178 25.5056 66.0733 25.6433C65.7284 25.781 65.3288 25.8498 64.8738 25.8498C64.2606 25.8498 63.7331 25.7121 63.2921 25.4367C62.8578 25.1613 62.527 24.7792 62.2997 24.2904C62.0931 23.8405 61.9802 23.331 61.9613 22.7619H69.909V22.1009C69.909 21.261 69.7848 20.4968 69.5368 19.8083C69.2888 19.1129 68.9368 18.5139 68.4818 18.0113C68.0272 17.5018 67.4794 17.1094 66.838 16.834C66.2041 16.5586 65.4978 16.4209 64.7185 16.4209C63.7058 16.4209 62.8098 16.6653 62.0305 17.1541C61.2517 17.6429 60.6418 18.3177 60.2004 19.1783C59.7595 20.0389 59.5388 21.0234 59.5388 22.132C59.5388 23.2335 59.7529 24.2146 60.1802 25.0752C60.6075 25.929 61.2173 26.6003 62.0098 27.0891ZM67.2102 19.8702C66.9829 19.402 66.6592 19.0406 66.2385 18.7859C65.8182 18.5311 65.3218 18.4037 64.7495 18.4037C64.1844 18.4037 63.6917 18.5311 63.271 18.7859C62.8578 19.0406 62.534 19.402 62.2997 19.8702C62.1321 20.2093 62.0263 20.5948 61.982 21.0269H67.5274C67.4832 20.5948 67.3773 20.2093 67.2102 19.8702Z" fill="#F2F3F5"/>
</svg>
