<svg width="71" height="40" viewBox="0 0 71 40" fill="none" xmlns="http://www.w3.org/2000/svg">
<path d="M3.36303 22.9298L9.87286 31L11.7867 29.5016L6.266 22.7957L11.0414 16.7419L9.10456 15.3267L3.36303 22.9298ZM0 9.54572V30.6208H2.47512V9L0 9.54572Z" fill="#F2F3F5"/>
<path d="M13.9766 26.6111C13.9766 25.1034 14.4735 23.9519 15.4718 23.1656C16.4701 22.3794 17.9147 21.9771 19.8148 21.9771H22.6671V21.0244C22.6671 18.7182 21.6627 17.5635 19.6537 17.5604C18.9688 17.5667 18.2873 17.6583 17.6249 17.8333C16.9558 18.0031 16.3031 18.2321 15.6742 18.5178L14.9473 16.7465C15.695 16.3206 16.4945 15.9941 17.3258 15.7753C18.1373 15.5535 18.9739 15.4385 19.8148 15.433C23.2959 15.433 25.0364 17.3153 25.0364 21.0799V30.6208H23.1962L22.9017 28.9836C22.1927 29.5658 21.3981 30.0339 20.5462 30.371C19.7896 30.6836 18.9811 30.8499 18.1631 30.8612C17.6004 30.8929 17.0372 30.8087 16.508 30.6139C15.9787 30.4191 15.4946 30.1177 15.0854 29.7282C14.6994 29.3104 14.4015 28.8185 14.2093 28.2821C14.0172 27.7456 13.9349 27.1757 13.9674 26.6065L13.9766 26.6111ZM18.614 28.8449C18.971 28.8425 19.3264 28.7959 19.6721 28.7061C20.046 28.6136 20.4133 28.4962 20.7717 28.3546C21.47 28.0764 22.1099 27.6685 22.6579 27.1522V23.6697H20.0954C18.795 23.6697 17.8442 23.8964 17.243 24.3496C16.9322 24.6099 16.6883 24.9417 16.5322 25.3168C16.376 25.692 16.3121 26.0995 16.3459 26.5047C16.3459 28.0679 17.105 28.8495 18.6232 28.8495" fill="#F2F3F5"/>
<path d="M31.9139 30.6208H29.4434V9.54572L31.9185 9L31.9139 30.6208ZM38.5341 15.3267L40.4848 16.7465L35.7094 22.7957L41.2301 29.5016L39.3208 31L32.8064 22.9298L38.5341 15.3267Z" fill="#F2F3F5"/>
<path d="M43.4128 26.6111C43.3731 25.9588 43.4879 25.3064 43.7479 24.7074C44.0078 24.1085 44.4054 23.5801 44.908 23.1656C45.9017 22.3733 47.3494 21.9771 49.251 21.9771H52.1033V21.0244C52.1033 18.7182 51.1004 17.5635 49.0945 17.5604C48.4081 17.5663 47.725 17.658 47.0611 17.8333C46.392 18.0031 45.7393 18.2321 45.1104 18.5178L44.3835 16.7465C45.1312 16.3206 45.9307 15.9941 46.7621 15.7753C47.5735 15.5535 48.4101 15.4385 49.251 15.433C52.7321 15.433 54.4726 17.3153 54.4726 21.0799V30.6208H52.6324L52.338 28.9836C51.6296 29.5668 50.8348 30.0349 49.9825 30.371C49.2273 30.6831 48.4204 30.8495 47.604 30.8612C47.0405 30.8935 46.4764 30.8097 45.9463 30.6148C45.4162 30.42 44.9314 30.1183 44.5216 29.7282C44.1356 29.3104 43.8377 28.8185 43.6456 28.2821C43.4534 27.7456 43.3711 27.1757 43.4036 26.6065L43.4128 26.6111ZM48.0502 28.8449C48.4073 28.8428 48.7627 28.7962 49.1083 28.7061C49.4824 28.6143 49.8498 28.4969 50.2079 28.3546C50.9062 28.0764 51.5461 27.6685 52.0941 27.1522V23.6697H49.5224C48.222 23.6697 47.2712 23.8964 46.67 24.3496C46.355 24.6075 46.1068 24.9382 45.9465 25.3135C45.7863 25.6888 45.7188 26.0975 45.7499 26.5047C45.7499 28.0679 46.5167 28.8495 48.0502 28.8495" fill="#F2F3F5"/>
<path d="M64.435 15.4609C66.4776 15.4609 68.0817 16.1345 69.2472 17.4819C70.4127 18.8292 70.9969 20.7547 71 23.2582C71 25.7248 70.4219 27.624 69.2656 28.9559C68.1093 30.2879 66.4991 30.9523 64.435 30.9492C62.3892 30.9492 60.7836 30.2863 59.6181 28.9606C58.4527 27.6348 57.8699 25.7356 57.8699 23.2628C57.8699 20.7562 58.4573 18.8308 59.632 17.4865C60.8066 16.1423 62.4076 15.4686 64.435 15.4655V15.4609ZM64.435 17.4865C63.8562 17.4583 63.2798 17.5785 62.7599 17.8358C62.24 18.093 61.7938 18.4789 61.463 18.9572C60.7683 19.9376 60.4232 21.3759 60.4232 23.2628C60.4232 25.1498 60.7683 26.5511 61.463 27.5038C61.8235 27.9519 62.2792 28.3133 62.7966 28.5615C63.314 28.8098 63.88 28.9387 64.4534 28.9387C65.0267 28.9387 65.5928 28.8098 66.1102 28.5615C66.6276 28.3133 67.0832 27.9519 67.4437 27.5038C68.1338 26.5511 68.4789 25.1374 68.4789 23.2628C68.4789 21.3759 68.1338 19.9376 67.4437 18.9572C67.1083 18.477 66.6572 18.0903 66.1326 17.833C65.608 17.5758 65.0271 17.4566 64.4442 17.4865" fill="#F2F3F5"/>
</svg>
