<svg width="98" height="40" viewBox="0 0 98 40" fill="none" xmlns="http://www.w3.org/2000/svg">
<path fill-rule="evenodd" clip-rule="evenodd" d="M59.83 14.2331L59.8309 26.4025H63.2644V14.2331H59.83ZM32.8193 14.217V26.4025H36.2843V16.9437L38.9868 16.9523C39.8755 16.9523 40.4895 17.1659 40.9181 17.6233C41.4617 18.2027 41.6831 19.1361 41.6831 20.8452V26.4025H45.0392V19.6697C45.0392 14.8645 41.9793 14.2164 38.9855 14.2164L32.8193 14.217ZM65.3585 14.2337V26.4025H70.9281C73.895 26.4025 74.8634 25.9086 75.9105 24.8012C76.6514 24.0237 77.1294 22.3165 77.1294 20.4515C77.1294 18.7412 76.7242 17.2154 76.0181 16.2652C74.7458 14.5661 72.9136 14.2337 70.1772 14.2337H65.3585ZM68.7649 16.883H70.241C72.3822 16.883 73.7678 17.8462 73.7678 20.3438C73.7678 22.8427 72.3822 23.8052 70.241 23.8052H68.7649V16.883ZM54.8794 14.2337L52.0135 23.8776L49.268 14.2343L45.5618 14.2337L49.4827 26.4025H54.4318L58.3839 14.2337H54.8794ZM78.7274 26.4025H82.1614V14.2343L78.726 14.2337L78.7274 26.4025ZM88.3523 14.238L83.5579 26.3982H86.9434L87.7024 24.249H93.3762L94.0942 26.3982H97.7701L92.9391 14.2374L88.3523 14.238ZM90.5812 16.4571L92.6615 22.1544H88.4356L90.5812 16.4571Z" fill="#F2F3F5"/>
<path fill-rule="evenodd" clip-rule="evenodd" d="M10.6749 16.2622V14.5878C10.8369 14.5754 11.0014 14.5674 11.1684 14.5618C15.7446 14.4182 18.747 18.498 18.747 18.498C18.747 18.498 15.5041 23.0055 12.0273 23.0055C11.5678 23.0074 11.1108 22.9343 10.6749 22.7889V17.7106C12.4559 17.9261 12.8146 18.7134 13.8857 20.5011L16.2678 18.4906C16.2678 18.4906 14.5288 16.2077 11.5976 16.2077C11.2791 16.2077 10.9742 16.23 10.6749 16.2622ZM10.6749 10.7296V13.2322C10.8388 13.2192 11.0033 13.2087 11.1684 13.2025C17.5319 12.9883 21.6783 18.4268 21.6783 18.4268C21.6783 18.4268 16.9165 24.2231 11.955 24.2231C11.5005 24.2231 11.0744 24.181 10.6749 24.1098V25.6561C11.0168 25.6994 11.3712 25.7254 11.741 25.7254C16.3575 25.7254 19.6963 23.3658 22.9294 20.5723C23.4656 21.0018 25.6603 22.0473 26.1111 22.5054C23.037 25.0804 15.8733 27.1571 11.8115 27.1571C11.4318 27.1559 11.0527 27.1361 10.6749 27.0977V29.2704H28.2224V10.7296H10.6749ZM10.6749 22.7889V24.1098C6.40471 23.3485 5.21924 18.9047 5.21924 18.9047C5.21924 18.9047 7.26987 16.6305 10.6749 16.2622V17.7106L10.6681 17.71C8.88083 17.4952 7.48509 19.1665 7.48509 19.1665C7.48509 19.1665 8.26741 21.9792 10.6749 22.7889ZM3.09064 18.7122C3.09064 18.7122 5.6212 14.9734 10.6749 14.5878V13.231C5.07758 13.681 0.230469 18.4256 0.230469 18.4256C0.230469 18.4256 2.97561 26.3692 10.6749 27.0965V25.6561C5.02502 24.9448 3.09064 18.7122 3.09064 18.7122Z" fill="#F2F3F5"/>
</svg>
