<svg width="62" height="40" viewBox="0 0 62 40" fill="none" xmlns="http://www.w3.org/2000/svg">
<path fill-rule="evenodd" clip-rule="evenodd" d="M61.5714 20.4245C61.5714 16.0766 59.4653 12.6458 55.4403 12.6458C51.3979 12.6458 48.9525 16.0766 48.9525 20.3906C48.9525 25.5028 51.8397 28.0844 55.9838 28.0844C58.0047 28.0844 59.5335 27.6258 60.6882 26.9804V23.5836C59.5335 24.1611 58.2085 24.5177 56.5272 24.5177C54.8799 24.5177 53.4193 23.9403 53.2325 21.9361H61.5375C61.5375 21.7154 61.5714 20.8322 61.5714 20.4245ZM53.1812 18.8111C53.1812 16.8919 54.3534 16.0936 55.4234 16.0936C56.4595 16.0936 57.5634 16.8919 57.5634 18.8111H53.1812ZM42.3965 12.6458C40.732 12.6458 39.662 13.4271 39.0676 13.9706L38.8468 12.9176H35.1103V32.7211L39.3563 31.8209L39.3733 27.0144C39.9847 27.456 40.8849 28.0844 42.3795 28.0844C45.4196 28.0844 48.1879 25.6387 48.1879 20.2547C48.171 15.3293 45.3687 12.6458 42.3965 12.6458ZM41.3774 24.3479C40.3754 24.3479 39.7809 23.9912 39.3733 23.5496L39.3563 17.2485C39.7979 16.756 40.4093 16.4163 41.3774 16.4163C42.9229 16.4163 43.9929 18.1487 43.9929 20.3736C43.9929 22.6495 42.9399 24.3479 41.3774 24.3479ZM29.2677 11.6438L33.5308 10.7266V7.27887L29.2677 8.17901V11.6438ZM29.2677 12.9346H33.5308V27.7957H29.2677V12.9346ZM24.699 14.1914L24.4273 12.9346H20.7587V27.7957H25.0047V17.7241C26.0068 16.4163 27.7052 16.6541 28.2317 16.8409V12.9346C27.6882 12.7308 25.701 12.3571 24.699 14.1914ZM16.2069 9.24901L12.0628 10.1322L12.0458 23.7365C12.0458 26.2501 13.9311 28.1014 16.4447 28.1014C17.8374 28.1014 18.8565 27.8466 19.417 27.5409V24.0931C18.8734 24.3139 16.19 25.0952 16.19 22.5815V16.5522H19.417V12.9346H16.19L16.2069 9.24901ZM4.72569 17.2485C4.72569 16.5862 5.26919 16.3314 6.16933 16.3314C7.46016 16.3314 9.09062 16.722 10.3814 17.4184V13.4271C8.97171 12.8666 7.57901 12.6458 6.16933 12.6458C2.72156 12.6458 0.428711 14.4462 0.428711 17.4523C0.428711 22.1399 6.88266 21.3927 6.88266 23.4138C6.88266 24.195 6.2033 24.4498 5.2522 24.4498C3.84252 24.4498 2.0422 23.8723 0.615536 23.0911V27.1333C2.19506 27.8127 3.79156 28.1014 5.2522 28.1014C8.78491 28.1014 11.2136 26.352 11.2136 23.3119C11.1967 18.2506 4.72569 19.1507 4.72569 17.2485Z" fill="#F2F3F5"/>
</svg>
