<svg width="72" height="40" viewBox="0 0 72 40" fill="none" xmlns="http://www.w3.org/2000/svg">
<path d="M6.89718 11.9043H11.726L18.5455 28.3371H13.442L9.1306 17.4254L6.28128 24.5861H9.66884L11.0213 28.3371H0L6.89718 11.9043ZM24.2317 15.314C24.7269 15.314 25.2652 15.3584 25.8048 15.4902V11.4202H30.0732V27.6116C29.0938 28.0513 26.9825 28.591 24.8698 28.591C21.0425 28.591 17.7534 26.4131 17.7534 22.0683C17.7534 17.7236 20.9218 15.3251 24.2317 15.3251V15.314ZM24.7713 25.0702C25.1667 25.0702 25.4857 24.9926 25.8048 24.8941V18.9319C25.4857 18.8112 25.1667 18.7557 24.7491 18.7557C23.3522 18.7557 22.0538 19.7892 22.0538 21.9671C22.0538 24.145 23.3744 25.0578 24.7713 25.0578V25.0689V25.0702ZM37.6737 15.314C41.2263 15.314 44.2518 17.7125 44.2518 21.9352C44.2518 26.1578 41.2374 28.5563 37.6737 28.5563C34.11 28.5563 31.0734 26.1578 31.0734 21.9352C31.0734 17.7125 34.0656 15.314 37.6737 15.314ZM37.6737 25.0051C38.8944 25.0051 40.0278 24.0257 40.0278 21.9366C40.0278 19.8474 38.8944 18.868 37.6737 18.868C36.453 18.868 35.3418 19.8474 35.3418 21.9366C35.3418 24.0257 36.3975 25.0051 37.6737 25.0051ZM45.2742 11.4202H49.5633V15.4902C50.0808 15.3917 50.6193 15.314 51.1587 15.314C54.4924 15.314 57.5828 17.4919 57.5828 21.7604C57.5828 26.2702 54.2939 28.5577 50.3998 28.5577C48.7282 28.5577 46.5934 28.2165 45.2742 27.6005V11.4091V11.4202ZM50.4998 25.0494C51.9743 25.0494 53.3159 23.9938 53.3159 21.8159C53.3159 19.7808 51.9952 18.8237 50.5664 18.8237C50.1712 18.8237 49.8518 18.868 49.5647 18.9998V24.8844C49.8061 24.9829 50.1251 25.0605 50.4998 25.0605V25.0494ZM64.8658 15.314C68.0772 15.314 71.0247 17.3713 71.0247 21.5176C71.0247 22.0781 71.0028 22.6177 70.9262 23.1559H62.929C63.3689 24.6083 64.6449 25.2894 66.2403 25.2894C67.5387 25.2894 68.7375 24.9704 70.0897 24.3877V27.6546C68.8361 28.2927 67.3406 28.5563 65.8004 28.5563C61.7307 28.5563 58.5622 26.1037 58.5622 21.9352C58.5622 17.7666 61.4336 15.314 64.8658 15.314ZM67.0212 20.4841C66.8007 19.0872 65.8656 18.5268 64.9101 18.5268C63.9541 18.5268 63.1718 19.1205 62.8528 20.4841H67.0212Z" fill="#F2F3F5"/>
</svg>
