<svg width="76" height="40" viewBox="0 0 76 40" fill="none" xmlns="http://www.w3.org/2000/svg">
<path d="M8.13914 9.79932C3.70022 9.79932 0.0683594 13.4312 0.0683594 17.8701C0.0683594 22.3091 3.70022 25.9409 8.13914 25.9409C12.5781 25.9409 16.21 22.3315 16.21 17.8701C16.21 13.4087 12.6005 9.79932 8.13914 9.79932ZM8.13914 23.0489C5.38166 23.0489 3.16212 20.7846 3.16212 17.8701C3.16212 14.9557 5.38166 12.6913 8.13914 12.6913C10.8967 12.6913 13.1161 14.9557 13.1161 17.8701C13.1161 20.7846 10.8967 23.0489 8.13914 23.0489Z" fill="#F2F3F5"/>
<path d="M24.3705 14.2832C22.9133 14.2832 21.5009 14.8661 20.761 15.8526V14.5074H17.8465V30.2007H20.761V24.5287C21.5009 25.4478 22.8684 25.9411 24.3705 25.9411C27.5091 25.9411 29.9752 23.475 29.9752 20.1122C29.9752 16.7493 27.5091 14.2832 24.3705 14.2832ZM23.8773 23.4077C22.2183 23.4077 20.7386 22.1075 20.7386 20.1122C20.7386 18.1168 22.2183 16.8166 23.8773 16.8166C25.5363 16.8166 27.0159 18.1168 27.0159 20.1122C27.0159 22.1075 25.5363 23.4077 23.8773 23.4077Z" fill="#F2F3F5"/>
<path d="M36.8357 14.2832C33.6522 14.2832 31.1413 16.7718 31.1413 20.1122C31.1413 23.4526 33.3384 25.9411 36.9254 25.9411C39.8622 25.9411 41.7454 24.1699 42.3283 22.1746H39.4811C39.1224 23.0042 38.1136 23.587 36.903 23.587C35.4009 23.587 34.2575 22.5334 33.9885 21.0313H42.4628V19.888C42.4628 16.839 40.333 14.2832 36.8357 14.2832ZM34.0109 18.9688C34.3248 17.5564 35.4906 16.6373 36.903 16.6373C38.405 16.6373 39.5484 17.6236 39.6829 18.9688H34.0109Z" fill="#F2F3F5"/>
<path d="M50.2193 14.2832C48.9191 14.2832 47.5516 14.8661 46.9239 15.8302V14.5074H44.0094V25.7169H46.9239V19.6862C46.9239 17.9375 47.8655 16.7941 49.39 16.7941C50.8021 16.7941 51.5643 17.8703 51.5643 19.3724V25.7169H54.479V18.9016C54.479 16.1216 52.7751 14.2832 50.2193 14.2832Z" fill="#F2F3F5"/>
<path d="M61.9438 10.0239L55.5988 25.7171H58.7154L60.0603 22.2871H67.2795L68.6244 25.7171H71.7853L65.486 10.0239H61.9438ZM61.0692 19.6865L63.6697 13.1177L66.2477 19.6865H61.0692Z" fill="#F2F3F5"/>
<path d="M75.9326 10.0239H72.9736V25.7171H75.9326V10.0239Z" fill="#F2F3F5"/>
</svg>
