<svg width="32" height="32" viewBox="0 0 32 32" fill="none" xmlns="http://www.w3.org/2000/svg">
<path d="M24.0428 16.9417C24.0073 13.1454 27.0898 11.3214 27.2285 11.2346C25.4934 8.6542 22.7984 8.29954 21.8385 8.25973C19.5452 8.02087 17.3622 9.63495 16.196 9.63495C15.0299 9.63495 13.2344 8.2923 11.3322 8.33211C8.82921 8.3683 6.52174 9.81228 5.23113 12.0923C2.63568 16.6739 4.56982 23.4777 7.10483 27.2016C8.34567 29.022 9.81761 31.0739 11.7589 30.998C13.629 30.922 14.333 29.7675 16.5871 29.7675C18.8413 29.7675 19.4777 30.998 21.4509 30.9618C23.4597 30.922 24.7326 29.1016 25.9627 27.274C27.3778 25.1569 27.9644 23.1121 28 23.0036C27.9538 22.9855 24.0855 21.4763 24.0428 16.9417Z" fill="#F2F3F5"/>
<path d="M20.3345 5.79157C21.3656 4.52129 22.0589 2.75884 21.8705 1C20.3879 1.06152 18.5924 2.00608 17.5293 3.27636C16.5765 4.39825 15.7409 6.19328 15.9685 7.91592C17.6146 8.04621 19.307 7.05822 20.3345 5.79157Z" fill="#F2F3F5"/>
</svg>
