<svg width="32" height="32" viewBox="0 0 32 32" fill="none" xmlns="http://www.w3.org/2000/svg">
<path fill-rule="evenodd" clip-rule="evenodd" d="M10.7118 15.0077C10.5547 14.802 10.3016 14.6934 10.0444 14.7214C9.78714 14.7493 9.56324 14.9098 9.45396 15.1445L3.08041 27.8966C2.96236 28.1329 2.97498 28.4135 3.11376 28.6382C3.25255 28.863 3.49771 28.9998 3.76171 28.9998H12.6366C12.927 29.0066 13.194 28.8413 13.3179 28.5784C15.2323 24.6197 14.0721 18.6004 10.7118 15.0077Z" fill="url(#paint0_linear_3087_10934)"/>
<path fill-rule="evenodd" clip-rule="evenodd" d="M15.3864 3.40909C12.1555 8.38384 11.7826 14.6939 14.4051 20.0151L18.6837 28.5784C18.8127 28.8367 19.0765 28.9998 19.365 28.9998H28.2382C28.5022 28.9998 28.7474 28.863 28.8862 28.6383C29.025 28.4136 29.0376 28.1329 28.9195 27.8966C28.9195 27.8966 16.982 4.00196 16.682 3.40431C16.561 3.15606 16.3087 2.99899 16.0327 3C15.7567 3.00102 15.5056 3.15996 15.3864 3.40909Z" fill="#2684FF"/>
<defs>
<linearGradient id="paint0_linear_3087_10934" x1="14.2047" y1="16.9757" x2="5.26503" y2="26.5721" gradientUnits="userSpaceOnUse">
<stop stop-color="#0052CC"/>
<stop offset="0.923" stop-color="#2684FF"/>
</linearGradient>
</defs>
</svg>
