<svg width="32" height="32" viewBox="0 0 32 32" fill="none" xmlns="http://www.w3.org/2000/svg">
<path d="M19.9774 4L20.1414 4.008C22.8267 4.29333 24.844 4.904 26.7627 6.23867C26.9916 6.39842 27.1647 6.62601 27.2574 6.88933C29.7587 13.976 30.4214 20.2053 29.192 23.2627C27.8547 25.936 25.7174 28 23.3334 28C22.3574 28 21.076 26.7093 20.2294 25.2733C21.1744 25.1013 22.1103 24.8819 23.0334 24.616C23.2018 24.5678 23.3591 24.487 23.4963 24.378C23.6335 24.2691 23.7479 24.1342 23.8329 23.981C23.918 23.8279 23.9721 23.6595 23.992 23.4854C24.012 23.3114 23.9975 23.1351 23.9494 22.9667C23.9012 22.7982 23.8203 22.6409 23.7114 22.5037C23.6025 22.3665 23.4676 22.2521 23.3144 22.1671C23.1612 22.082 22.9928 22.028 22.8188 22.008C22.6447 21.988 22.4685 22.0025 22.3 22.0507C17.8734 23.3173 14.1267 23.3173 9.70002 22.0507C9.35984 21.9534 8.99496 21.9953 8.68565 22.1671C8.37634 22.3389 8.14794 22.6265 8.05069 22.9667C7.95344 23.3069 7.99532 23.6717 8.1671 23.981C8.33889 24.2904 8.62651 24.5188 8.96669 24.616C9.92269 24.888 10.8547 25.1093 11.7707 25.2747C10.924 26.708 9.64269 28 8.66669 28C6.28269 28 4.14536 25.936 2.76269 23.1613C1.57869 20.2053 2.24269 13.9747 4.74269 6.88933C4.8354 6.62601 5.00842 6.39842 5.23736 6.23867C7.15602 4.904 9.17336 4.29333 11.8587 4.008C12.0996 3.9823 12.3429 4.02272 12.5626 4.12491C12.7822 4.22709 12.9699 4.38719 13.1054 4.588L13.1894 4.73067L14.0574 6.444L14.24 6.42267C15.4116 6.30267 16.5924 6.30267 17.764 6.42267L17.9427 6.444L18.8094 4.732C18.9063 4.53972 19.0484 4.3738 19.2235 4.24841C19.3986 4.12302 19.6014 4.04191 19.8147 4.012L19.9774 4ZM12 13.3333C11.3628 13.3333 10.7466 13.5615 10.263 13.9765C9.77949 14.3916 9.46057 14.9661 9.36402 15.596L9.34002 15.8013L9.33336 16L9.34002 16.2C9.37894 16.7174 9.56795 17.2122 9.88389 17.6238C10.1998 18.0354 10.629 18.3458 11.1187 18.5171C11.6085 18.6884 12.1376 18.7131 12.6412 18.5882C13.1448 18.4633 13.601 18.1942 13.9539 17.8138C14.3069 17.4335 14.5412 16.9585 14.6281 16.4469C14.7151 15.9354 14.6509 15.4096 14.4435 14.934C14.2361 14.4584 13.8945 14.0537 13.4604 13.7693C13.0264 13.485 12.5189 13.3335 12 13.3333ZM20 13.3333C19.3628 13.3333 18.7466 13.5615 18.263 13.9765C17.7795 14.3916 17.4606 14.9661 17.364 15.596L17.34 15.8013L17.3334 16L17.34 16.2C17.3789 16.7174 17.5679 17.2122 17.8839 17.6238C18.1998 18.0354 18.629 18.3458 19.1187 18.5171C19.6085 18.6884 20.1376 18.7131 20.6412 18.5882C21.1448 18.4633 21.601 18.1942 21.9539 17.8138C22.3069 17.4335 22.5412 16.9585 22.6281 16.4469C22.7151 15.9354 22.6509 15.4096 22.4435 14.934C22.2361 14.4584 21.8945 14.0537 21.4604 13.7693C21.0264 13.485 20.5189 13.3335 20 13.3333Z" fill="#F2F3F5"/>
</svg>
