<svg width="32" height="32" viewBox="0 0 32 32" fill="none" xmlns="http://www.w3.org/2000/svg">
<path d="M26.9667 14.517C24.8095 13.5884 22.922 12.3145 21.3035 10.6968C19.6858 9.07913 18.4118 7.19093 17.4832 5.03375C17.1267 4.207 16.8403 3.35718 16.6206 2.48587C16.549 2.20101 16.2936 2.00049 16 2.00049C15.7064 2.00049 15.4509 2.20101 15.3793 2.48587C15.1597 3.35718 14.8733 4.2062 14.5167 5.03375C13.5882 7.19093 12.3142 9.07913 10.6965 10.6968C9.07875 12.3145 7.1905 13.5884 5.03331 14.517C4.20654 14.8735 3.35671 15.16 2.48539 15.3796C2.20052 15.4512 2 15.7066 2 16.0003C2 16.2939 2.20052 16.5493 2.48539 16.6209C3.35671 16.8405 4.20575 17.127 5.03331 17.4835C7.1905 18.4121 9.07796 19.686 10.6965 21.3037C12.315 22.9214 13.5882 24.8096 14.5167 26.9668C14.8733 27.7935 15.1597 28.6433 15.3793 29.5146C15.4509 29.7995 15.7064 30 16 30C16.2936 30 16.549 29.7995 16.6206 29.5146C16.8403 28.6433 17.1267 27.7943 17.4832 26.9668C18.4118 24.8096 19.6858 22.9222 21.3035 21.3037C22.9212 19.686 24.8095 18.4121 26.9667 17.4835C27.7934 17.127 28.6433 16.8405 29.5146 16.6209C29.7994 16.5493 30 16.2939 30 16.0003C30 15.7066 29.7994 15.4512 29.5146 15.3796C28.6433 15.16 27.7942 14.8735 26.9667 14.517Z" fill="white"/>
<mask id="mask0_3375_6775" style="mask-type:alpha" maskUnits="userSpaceOnUse" x="2" y="2" width="28" height="28">
<path d="M16 2C16.2936 2.00001 16.5492 2.20049 16.6208 2.48535C16.8404 3.35666 17.1269 4.2067 17.4834 5.03345C18.412 7.19046 19.6858 9.07858 21.3034 10.6962C22.9219 12.3138 24.8094 13.588 26.9665 14.5166C27.7941 14.8731 28.6433 15.1596 29.5146 15.3792C29.7994 15.4509 29.9999 15.706 30 15.9996C30 16.2932 29.7995 16.5487 29.5146 16.6204C28.6433 16.84 27.7933 17.1265 26.9665 17.4829C24.8094 18.4115 22.9211 19.6854 21.3034 21.303C19.6858 22.9214 18.412 24.809 17.4834 26.9661C17.1269 27.7937 16.8404 28.6429 16.6208 29.5142C16.5491 29.7991 16.2936 29.9996 16 29.9996C15.7064 29.9996 15.4509 29.7991 15.3792 29.5142C15.1596 28.6429 14.8731 27.7929 14.5166 26.9661C13.588 24.809 12.3151 22.9206 10.6966 21.303C9.07814 19.6854 7.19059 18.4115 5.03345 17.4829C4.20589 17.1265 3.35667 16.84 2.48535 16.6204C2.20051 16.5487 2 16.2932 2 15.9996C2.00009 15.706 2.20058 15.4509 2.48535 15.3792C3.35667 15.1596 4.20669 14.8731 5.03345 14.5166C7.19063 13.588 9.07892 12.3138 10.6966 10.6962C12.3142 9.07858 13.588 7.19046 14.5166 5.03345C14.8731 4.20591 15.1596 3.35666 15.3792 2.48535C15.4509 2.20049 15.7064 2 16 2Z" fill="black"/>
<path d="M16 2C16.2936 2.00001 16.5492 2.20049 16.6208 2.48535C16.8404 3.35666 17.1269 4.2067 17.4834 5.03345C18.412 7.19046 19.6858 9.07858 21.3034 10.6962C22.9219 12.3138 24.8094 13.588 26.9665 14.5166C27.7941 14.8731 28.6433 15.1596 29.5146 15.3792C29.7994 15.4509 29.9999 15.706 30 15.9996C30 16.2932 29.7995 16.5487 29.5146 16.6204C28.6433 16.84 27.7933 17.1265 26.9665 17.4829C24.8094 18.4115 22.9211 19.6854 21.3034 21.303C19.6858 22.9214 18.412 24.809 17.4834 26.9661C17.1269 27.7937 16.8404 28.6429 16.6208 29.5142C16.5491 29.7991 16.2936 29.9996 16 29.9996C15.7064 29.9996 15.4509 29.7991 15.3792 29.5142C15.1596 28.6429 14.8731 27.7929 14.5166 26.9661C13.588 24.809 12.3151 22.9206 10.6966 21.303C9.07814 19.6854 7.19059 18.4115 5.03345 17.4829C4.20589 17.1265 3.35667 16.84 2.48535 16.6204C2.20051 16.5487 2 16.2932 2 15.9996C2.00009 15.706 2.20058 15.4509 2.48535 15.3792C3.35667 15.1596 4.20669 14.8731 5.03345 14.5166C7.19063 13.588 9.07892 12.3138 10.6966 10.6962C12.3142 9.07858 13.588 7.19046 14.5166 5.03345C14.8731 4.20591 15.1596 3.35666 15.3792 2.48535C15.4509 2.20049 15.7064 2 16 2Z" fill="url(#paint0_linear_3375_6775)"/>
</mask>
<g mask="url(#mask0_3375_6775)">
<g filter="url(#filter0_f_3375_6775)">
<path d="M-0.527917 23.8896C2.70724 25.0385 6.42563 22.8843 7.77733 19.0781C9.12904 15.2719 7.6022 11.255 4.36705 10.1061C1.13189 8.95723 -2.5865 11.1114 -3.9382 14.9176C-5.28991 18.7238 -3.76307 22.7407 -0.527917 23.8896Z" fill="#FFE432"/>
</g>
<g filter="url(#filter1_f_3375_6775)">
<path d="M13.8364 11.3405C18.2809 11.3405 21.8839 7.65837 21.8839 3.11619C21.8839 -1.42599 18.2809 -5.10815 13.8364 -5.10815C9.39183 -5.10815 5.78882 -1.42599 5.78882 3.11619C5.78882 7.65837 9.39183 11.3405 13.8364 11.3405Z" fill="#FC413D"/>
</g>
<g filter="url(#filter2_f_3375_6775)">
<path d="M10.7088 37.6421C15.3484 37.4153 18.8713 32.3592 18.5775 26.3489C18.2837 20.3386 14.2844 15.6501 9.64483 15.8769C5.00526 16.1037 1.48232 21.1599 1.77614 27.1702C2.06995 33.1805 6.06924 37.8689 10.7088 37.6421Z" fill="#00B95C"/>
</g>
<g filter="url(#filter3_f_3375_6775)">
<path d="M10.7088 37.6421C15.3484 37.4153 18.8713 32.3592 18.5775 26.3489C18.2837 20.3386 14.2844 15.6501 9.64483 15.8769C5.00526 16.1037 1.48232 21.1599 1.77614 27.1702C2.06995 33.1805 6.06924 37.8689 10.7088 37.6421Z" fill="#00B95C"/>
</g>
<g filter="url(#filter4_f_3375_6775)">
<path d="M15.3556 34.0061C19.2451 31.6396 20.2862 26.2499 17.6809 21.968C15.0755 17.686 9.81039 16.1332 5.92083 18.4997C2.03128 20.8662 0.990216 26.2559 3.59555 30.5379C6.20089 34.8198 11.466 36.3726 15.3556 34.0061Z" fill="#00B95C"/>
</g>
<g filter="url(#filter5_f_3375_6775)">
<path d="M31.077 20.55C35.4487 20.55 38.9928 17.1373 38.9928 12.9275C38.9928 8.71765 35.4487 5.30493 31.077 5.30493C26.7052 5.30493 23.1611 8.71765 23.1611 12.9275C23.1611 17.1373 26.7052 20.55 31.077 20.55Z" fill="#3186FF"/>
</g>
<g filter="url(#filter6_f_3375_6775)">
<path d="M-3.63689 19.6655C0.388437 22.7265 6.26901 21.7662 9.49773 17.5205C12.7265 13.2748 12.0807 7.35152 8.05535 4.29046C4.03002 1.2294 -1.85055 2.18974 -5.07927 6.43544C-8.308 10.6811 -7.66222 16.6044 -3.63689 19.6655Z" fill="#FBBC04"/>
</g>
<g filter="url(#filter7_f_3375_6775)">
<path d="M16.9888 24.19C21.7935 27.4933 28.1622 26.5731 31.2138 22.1346C34.2654 17.6962 32.8442 11.4203 28.0395 8.11699C23.2348 4.8137 16.8661 5.73394 13.8145 10.1724C10.7629 14.6108 12.1841 20.8867 16.9888 24.19Z" fill="#3186FF"/>
</g>
<g filter="url(#filter8_f_3375_6775)">
<path d="M25.7237 0.991966C26.9461 2.65387 25.3754 5.88515 22.2156 8.20924C19.0557 10.5333 15.5032 11.0701 14.2808 9.40821C13.0584 7.74632 14.6291 4.51502 17.789 2.19094C20.9489 -0.13314 24.5014 -0.669939 25.7237 0.991966Z" fill="#749BFF"/>
</g>
<g filter="url(#filter9_f_3375_6775)">
<path d="M15.6891 8.94819C20.5758 4.41546 22.2531 -1.72158 19.4354 -4.75928C16.6177 -7.79698 10.372 -6.58503 5.48523 -2.05231C0.598466 2.48041 -1.07883 8.61745 1.73889 11.6552C4.55661 14.6929 10.8023 13.4809 15.6891 8.94819Z" fill="#FC413D"/>
</g>
<g filter="url(#filter10_f_3375_6775)">
<path d="M5.67165 25.229C8.57608 27.3077 11.9106 27.6236 13.1195 25.9345C14.3284 24.2455 12.9539 21.1911 10.0495 19.1124C7.14504 17.0337 3.81052 16.7178 2.60162 18.4068C1.39271 20.0958 2.76721 23.1502 5.67165 25.229Z" fill="#FFEE48"/>
</g>
</g>
<defs>
<filter id="filter0_f_3375_6775" x="-6.58286" y="7.64493" width="17.0048" height="18.7059" filterUnits="userSpaceOnUse" color-interpolation-filters="sRGB">
<feFlood flood-opacity="0" result="BackgroundImageFix"/>
<feBlend mode="normal" in="SourceGraphic" in2="BackgroundImageFix" result="shape"/>
<feGaussianBlur stdDeviation="1.0761" result="effect1_foregroundBlur_3375_6775"/>
</filter>
<filter id="filter1_f_3375_6775" x="-4.61589" y="-15.5129" width="36.9046" height="37.2582" filterUnits="userSpaceOnUse" color-interpolation-filters="sRGB">
<feFlood flood-opacity="0" result="BackgroundImageFix"/>
<feBlend mode="normal" in="SourceGraphic" in2="BackgroundImageFix" result="shape"/>
<feGaussianBlur stdDeviation="5.20236" result="effect1_foregroundBlur_3375_6775"/>
</filter>
<filter id="filter2_f_3375_6775" x="-7.08599" y="7.02399" width="34.5257" height="39.4711" filterUnits="userSpaceOnUse" color-interpolation-filters="sRGB">
<feFlood flood-opacity="0" result="BackgroundImageFix"/>
<feBlend mode="normal" in="SourceGraphic" in2="BackgroundImageFix" result="shape"/>
<feGaussianBlur stdDeviation="4.42251" result="effect1_foregroundBlur_3375_6775"/>
</filter>
<filter id="filter3_f_3375_6775" x="-7.08599" y="7.02399" width="34.5257" height="39.4711" filterUnits="userSpaceOnUse" color-interpolation-filters="sRGB">
<feFlood flood-opacity="0" result="BackgroundImageFix"/>
<feBlend mode="normal" in="SourceGraphic" in2="BackgroundImageFix" result="shape"/>
<feGaussianBlur stdDeviation="4.42251" result="effect1_foregroundBlur_3375_6775"/>
</filter>
<filter id="filter4_f_3375_6775" x="-6.68438" y="8.5478" width="34.6451" height="35.4103" filterUnits="userSpaceOnUse" color-interpolation-filters="sRGB">
<feFlood flood-opacity="0" result="BackgroundImageFix"/>
<feBlend mode="normal" in="SourceGraphic" in2="BackgroundImageFix" result="shape"/>
<feGaussianBlur stdDeviation="4.42251" result="effect1_foregroundBlur_3375_6775"/>
</filter>
<filter id="filter5_f_3375_6775" x="14.7558" y="-3.10043" width="32.6423" height="32.0557" filterUnits="userSpaceOnUse" color-interpolation-filters="sRGB">
<feFlood flood-opacity="0" result="BackgroundImageFix"/>
<feBlend mode="normal" in="SourceGraphic" in2="BackgroundImageFix" result="shape"/>
<feGaussianBlur stdDeviation="4.20268" result="effect1_foregroundBlur_3375_6775"/>
</filter>
<filter id="filter6_f_3375_6775" x="-14.7522" y="-5.11767" width="33.9228" height="34.1913" filterUnits="userSpaceOnUse" color-interpolation-filters="sRGB">
<feFlood flood-opacity="0" result="BackgroundImageFix"/>
<feBlend mode="normal" in="SourceGraphic" in2="BackgroundImageFix" result="shape"/>
<feGaussianBlur stdDeviation="3.80884" result="effect1_foregroundBlur_3375_6775"/>
</filter>
<filter id="filter7_f_3375_6775" x="5.4039" y="-0.668001" width="34.2205" height="33.643" filterUnits="userSpaceOnUse" color-interpolation-filters="sRGB">
<feFlood flood-opacity="0" result="BackgroundImageFix"/>
<feBlend mode="normal" in="SourceGraphic" in2="BackgroundImageFix" result="shape"/>
<feGaussianBlur stdDeviation="3.40144" result="effect1_foregroundBlur_3375_6775"/>
</filter>
<filter id="filter8_f_3375_6775" x="7.77864" y="-6.06096" width="24.4474" height="22.5221" filterUnits="userSpaceOnUse" color-interpolation-filters="sRGB">
<feFlood flood-opacity="0" result="BackgroundImageFix"/>
<feBlend mode="normal" in="SourceGraphic" in2="BackgroundImageFix" result="shape"/>
<feGaussianBlur stdDeviation="3.04366" result="effect1_foregroundBlur_3375_6775"/>
</filter>
<filter id="filter9_f_3375_6775" x="-4.7699" y="-11.5745" width="30.7141" height="30.0448" filterUnits="userSpaceOnUse" color-interpolation-filters="sRGB">
<feFlood flood-opacity="0" result="BackgroundImageFix"/>
<feBlend mode="normal" in="SourceGraphic" in2="BackgroundImageFix" result="shape"/>
<feGaussianBlur stdDeviation="2.57074" result="effect1_foregroundBlur_3375_6775"/>
</filter>
<filter id="filter10_f_3375_6775" x="-4.20062" y="10.9573" width="24.1224" height="22.4266" filterUnits="userSpaceOnUse" color-interpolation-filters="sRGB">
<feFlood flood-opacity="0" result="BackgroundImageFix"/>
<feBlend mode="normal" in="SourceGraphic" in2="BackgroundImageFix" result="shape"/>
<feGaussianBlur stdDeviation="3.18173" result="effect1_foregroundBlur_3375_6775"/>
</filter>
<linearGradient id="paint0_linear_3375_6775" x1="9.95948" y1="20.7342" x2="24.5022" y2="8.47321" gradientUnits="userSpaceOnUse">
<stop stop-color="#4893FC"/>
<stop offset="0.27" stop-color="#4893FC"/>
<stop offset="0.776981" stop-color="#969DFF"/>
<stop offset="1" stop-color="#BD99FE"/>
</linearGradient>
</defs>
</svg>
