<svg
  width="24"
  height="24"
  viewBox="0 0 24 24"
  fill="none"
  xmlns="http://www.w3.org/2000/svg"
>
  <path
    d="M12 3C7.03071 3 3 7.03071 3 12C3 16.9693 7.03071 21 12 21C16.9693 21 21 16.9693 21 12C21 7.03071 16.9693 3 12 3ZM19.6821 11.3571H15.8314C15.7607 8.99143 15.1564 6.67071 14.0636 4.575C17.1686 5.44286 19.4057 8.14286 19.6821 11.3571ZM12 19.7143C11.8521 19.7143 11.7107 19.7079 11.5693 19.6886C10.2514 17.5736 9.51857 15.1371 9.45429 12.6429H14.5521C14.4879 15.1371 13.755 17.5671 12.4307 19.6886C12.2893 19.7079 12.1414 19.7143 12 19.7143ZM9.44786 11.3571C9.51214 8.86286 10.245 6.43286 11.5629 4.31143C11.8521 4.27286 12.1414 4.27286 12.4243 4.31143C13.7421 6.42643 14.475 8.86286 14.5457 11.3571H9.44786ZM9.93643 4.575C8.84357 6.67071 8.23286 8.99143 8.16857 11.3571H4.31786C4.59429 8.14286 6.83143 5.44286 9.93643 4.575ZM4.31786 12.6429H8.16857C8.23929 15.0086 8.84357 17.3293 9.93643 19.425C6.83143 18.5571 4.59429 15.8571 4.31786 12.6429ZM14.0636 19.425C15.1564 17.3293 15.7671 15.0086 15.8314 12.6429H19.6821C19.4057 15.8571 17.1686 18.5571 14.0636 19.425Z"
    fill="#F2F3F5"
  />
</svg>
