<svg width="32" height="32" viewBox="0 0 32 32" fill="none" xmlns="http://www.w3.org/2000/svg">
<path d="M23.7018 6.93799L16.0818 12.8847L8.2876 6.93799V6.9396L8.29701 6.94763V15.2747L15.9939 21.35L23.7018 15.5093V6.93799Z" fill="#EA4335"/>
<path d="M25.7028 5.49176L23.7017 6.93827V15.5096L29.9985 10.6751V7.76277C29.9985 7.76277 29.2342 3.60328 25.7028 5.49176Z" fill="#FBBC05"/>
<path d="M23.7017 15.5084V26.6255H28.5279C28.5279 26.6255 29.9012 26.4841 30.0001 24.9187V10.6738L23.7017 15.5084Z" fill="#34A853"/>
<path d="M8.29744 26.6371V15.2756L8.2876 15.2676L8.29744 26.6371Z" fill="#C5221F"/>
<path d="M8.28746 6.94063L6.29732 5.50216C2.76592 3.61367 2 7.77156 2 7.77156V10.6839L8.28746 15.2677V6.94063Z" fill="#C5221F"/>
<path d="M8.2876 6.94141V15.2684L8.29744 15.2765V6.94944L8.2876 6.94141Z" fill="#C5221F"/>
<path d="M2 10.6841V24.9289C2.09731 26.496 3.4722 26.6358 3.4722 26.6358H8.29845L8.28746 15.2663L2 10.6841Z" fill="#4285F4"/>
</svg>
