<svg width="32" height="32" viewBox="0 0 32 32" fill="none" xmlns="http://www.w3.org/2000/svg">
<path d="M16.0026 12.2101L11.5978 4.43661C11.7441 4.2877 11.9123 4.19004 12.0806 4.12439C10.7817 4.55189 10.1857 6.01051 10.1857 6.01051L2.13882 20.2077C2.0256 20.6528 1.99414 21.0547 2.0083 21.4085H10.7911L16.0026 12.2101Z" fill="#34A853"/>
<path d="M16.0024 12.2101L21.2139 21.4085H29.9967C30.0109 21.0547 29.9794 20.6528 29.8662 20.2077L21.8194 6.01051C21.8194 6.01051 21.2218 4.55189 19.9244 4.12439C20.0911 4.19004 20.261 4.2877 20.4072 4.43661L16.0024 12.2101Z" fill="#FBBC05"/>
<path d="M16.0024 12.2108L20.4072 4.43739C20.2609 4.28848 20.0911 4.19081 19.9244 4.12517C19.7326 4.06272 19.5265 4.0211 19.3032 4.00989H19.0705H12.9343H12.7016C12.4799 4.01949 12.2723 4.06112 12.0804 4.12517C11.9137 4.19081 11.7439 4.28848 11.5977 4.43739L16.0024 12.2108Z" fill="#188038"/>
<path d="M10.7926 21.4086L6.43817 29.094C6.43817 29.094 6.29349 29.0235 6.09692 28.8778C6.71494 29.3534 7.31566 29.4542 7.31566 29.4542H24.4174C25.3609 29.4542 25.5575 29.094 25.5575 29.094C25.5606 29.0924 25.5622 29.0908 25.5653 29.0892L21.214 21.4086H10.7926Z" fill="#4285F4"/>
<path d="M10.793 21.4086H2.01025C2.05429 22.4525 2.50719 23.0625 2.50719 23.0625L2.83743 23.6357C2.86101 23.6694 2.87517 23.6886 2.87517 23.6886L3.59383 24.9503L5.20728 27.7586C5.25446 27.8723 5.3095 27.9764 5.36769 28.0757C5.3897 28.1093 5.41015 28.1461 5.43373 28.1781C5.44002 28.1877 5.44631 28.1973 5.4526 28.2069C5.65232 28.4887 5.87563 28.7065 6.09893 28.8778C6.2955 29.0251 6.44018 29.094 6.44018 29.094L10.793 21.4086Z" fill="#1967D2"/>
<path d="M21.2139 21.4086H29.9967C29.9526 22.4525 29.4997 23.0625 29.4997 23.0625L29.1695 23.6357C29.1459 23.6694 29.1317 23.6886 29.1317 23.6886L28.4131 24.9503L26.7996 27.7586C26.7524 27.8723 26.6974 27.9764 26.6392 28.0757C26.6172 28.1093 26.5968 28.1461 26.5732 28.1781C26.5669 28.1877 26.5606 28.1973 26.5543 28.2069C26.3546 28.4887 26.1313 28.7065 25.908 28.8778C25.7114 29.0251 25.5667 29.094 25.5667 29.094L21.2139 21.4086Z" fill="#EA4335"/>
</svg>
