<svg width="32" height="32" viewBox="0 0 32 32" fill="none" xmlns="http://www.w3.org/2000/svg">
<path d="M27.0405 3H22.8137V9.12468H28.9985V4.727C29.0002 4.727 28.6929 3.16702 27.0405 3Z" fill="#1967D2"/>
<path d="M22.8154 28.9716V28.9867V29L29.0002 22.8754H28.9448L22.8154 28.9716Z" fill="#1967D2"/>
<path d="M29.0001 22.8755V22.8206L28.9448 22.8755H29.0001Z" fill="#FBBC05"/>
<path d="M29.0002 9.12488H22.8154V22.8206H29.0002V9.12488Z" fill="#FBBC05"/>
<path d="M28.9448 22.8754H22.8154V28.9716L28.9448 22.8754Z" fill="#EA4335"/>
<path d="M22.8154 22.8755H28.9448L29.0002 22.8206H22.8154V22.8755Z" fill="#EA4335"/>
<path d="M22.8003 28.9869H22.8154V28.9719L22.8003 28.9869Z" fill="#34A853"/>
<path d="M9.04541 22.8206V28.987H22.8004L22.8155 22.8206H9.04541Z" fill="#34A853"/>
<path d="M22.8154 22.8757V22.8206L22.8003 28.987L22.8154 28.972V22.8757Z" fill="#34A853"/>
<path d="M3 22.8206V27.108C3.05542 28.4993 4.56005 28.987 4.56005 28.987H9.04539V22.8206H3Z" fill="#188038"/>
<path d="M9.04539 9.1248H22.8155V3.00012H4.73469C4.73469 3.00012 3.11083 3.16714 3 4.89248V22.8206H9.04539V9.1248Z" fill="#4285F4"/>
<path d="M13.5505 20.0484C13.2354 20.0484 12.9317 20.0073 12.6391 19.9253C12.3541 19.8432 12.0916 19.7201 11.8516 19.556C11.6115 19.3844 11.3978 19.1718 11.2102 18.9181C11.0302 18.6645 10.8915 18.3698 10.7939 18.0341L12.1778 17.4858C12.2753 17.8588 12.4404 18.1423 12.6729 18.3362C12.9054 18.5227 13.1979 18.616 13.5505 18.616C13.708 18.616 13.858 18.5936 14.0005 18.5488C14.143 18.4966 14.2668 18.4258 14.3718 18.3362C14.4768 18.2467 14.5593 18.1423 14.6193 18.0229C14.6868 17.8961 14.7206 17.7543 14.7206 17.5977C14.7206 17.2694 14.5968 17.012 14.3493 16.8255C14.1093 16.639 13.7755 16.5458 13.348 16.5458H12.6841V15.2141H13.2917C13.4417 15.2141 13.588 15.1954 13.7305 15.1581C13.873 15.1208 13.9968 15.0649 14.1018 14.9903C14.2143 14.9082 14.3006 14.8075 14.3606 14.6881C14.4281 14.5613 14.4618 14.4158 14.4618 14.2517C14.4618 13.9981 14.3718 13.7929 14.1918 13.6362C14.0118 13.4721 13.768 13.3901 13.4605 13.3901C13.1304 13.3901 12.8754 13.4796 12.6954 13.6586C12.5229 13.8302 12.4029 14.0242 12.3354 14.2405L10.9852 13.6922C11.0527 13.5057 11.154 13.3155 11.289 13.1215C11.424 12.9201 11.5928 12.741 11.7953 12.5843C12.0053 12.4202 12.2491 12.2897 12.5266 12.1927C12.8042 12.0882 13.1229 12.036 13.483 12.036C13.8505 12.036 14.1843 12.0882 14.4843 12.1927C14.7919 12.2971 15.0544 12.4426 15.2719 12.6291C15.4894 12.8082 15.6582 13.0245 15.7782 13.2781C15.8982 13.5243 15.9582 13.7929 15.9582 14.0839C15.9582 14.3077 15.9282 14.5091 15.8682 14.6881C15.8157 14.8672 15.7445 15.0276 15.6544 15.1693C15.5644 15.3111 15.4594 15.4342 15.3394 15.5386C15.2269 15.6356 15.1106 15.7139 14.9906 15.7736V15.8631C15.3507 16.0049 15.6469 16.2324 15.8795 16.5458C16.1195 16.8591 16.2395 17.2545 16.2395 17.7319C16.2395 18.0677 16.1757 18.3773 16.0482 18.6607C15.9207 18.9368 15.7369 19.1792 15.4969 19.3881C15.2644 19.597 14.9831 19.7574 14.6531 19.8693C14.3231 19.9887 13.9555 20.0484 13.5505 20.0484Z" fill="#4285F4"/>
<path d="M18.9263 19.8693V13.9384L17.5649 14.5091L17.0249 13.267L19.2864 12.2151H20.4002V19.8693H18.9263Z" fill="#4285F4"/>
</svg>
