<svg width="32" height="32" viewBox="0 0 32 32" fill="none" xmlns="http://www.w3.org/2000/svg">
<path d="M3.76022 2.25109L19.9474 1.06588C21.9358 0.896818 22.4466 1.01079 23.6969 1.9118L28.8641 5.5202C29.7162 6.14079 30 6.30985 30 6.98554V26.7756C30 28.0159 29.5457 28.7496 27.9551 28.8616L9.15761 29.9902C7.96404 30.0462 7.39563 29.8771 6.77047 29.0875L2.96539 24.1825C2.28289 23.2797 2 22.6041 2 21.8141V4.22305C2 3.20894 2.45432 2.36332 3.76022 2.25109Z" fill="white"/>
<path fill-rule="evenodd" clip-rule="evenodd" d="M19.9474 1.06588L3.76022 2.25109C2.45432 2.36332 2 3.20894 2 4.22305V21.8141C2 22.6041 2.28289 23.2797 2.96539 24.1825L6.77047 29.0875C7.39563 29.8771 7.96404 30.0462 9.15761 29.9902L27.9551 28.8616C29.5445 28.7493 30 28.0157 30 26.7756V6.98554C30 6.34465 29.7446 6.16025 28.9928 5.61332L23.6969 1.9118C22.4466 1.01079 21.9358 0.896818 19.9474 1.06588ZM9.58259 6.66195C8.04764 6.76432 7.69952 6.78752 6.82776 6.08486L4.61149 4.33734C4.38623 4.11114 4.49945 3.82897 5.06697 3.77271L20.628 2.6455C21.9347 2.5324 22.6152 2.98392 23.1262 3.37832L25.7951 5.2952C25.9091 5.35232 26.1929 5.68959 25.8515 5.68959L9.78152 6.64861L9.58259 6.66195ZM7.79313 26.607V9.80667C7.79313 9.07298 8.02044 8.73455 8.70088 8.67771L27.1583 7.60647C27.7843 7.5505 28.0672 7.94489 28.0672 8.67742V25.3659C28.0672 26.0995 27.9531 26.7201 26.9313 26.7761L9.2687 27.7911C8.24686 27.8471 7.79313 27.5098 7.79313 26.607ZM25.2284 10.7074C25.3416 11.2149 25.2284 11.7224 24.7165 11.7804L23.8652 11.9477V24.3517C23.1259 24.7461 22.4455 24.9715 21.8768 24.9715C20.9679 24.9715 20.7409 24.6893 20.0601 23.8442L14.4931 15.1617V23.5621L16.2542 23.9573C16.2542 23.9573 16.2542 24.9723 14.8334 24.9723L10.9163 25.1977C10.8022 24.9715 10.9163 24.408 11.3132 24.2958L12.3363 24.0145V12.9076L10.9166 12.7936C10.8025 12.2861 11.0862 11.5533 11.8819 11.4965L16.0848 11.2161L21.8771 20.0108V12.2302L20.4007 12.062C20.2866 11.4405 20.7409 10.989 21.3084 10.9339L25.2284 10.7074Z" fill="black"/>
</svg>
