<svg width="32" height="32" viewBox="0 0 32 32" fill="none" xmlns="http://www.w3.org/2000/svg">
<path d="M7.90385 8.97132H30.9936V24.0226H7.90385V8.97132Z" fill="#4C97E3"/>
<path d="M19.4487 14.8205L31 24.0164H7.90385L19.4487 14.8205Z" fill="#E3EDF0"/>
<path d="M19.4487 18.3508L7.90385 8.97132H31L19.4487 18.3508Z" fill="#52C1FF"/>
<path d="M16.4936 28.9907L1.84615 26.9716C1.35897 26.9043 1 26.5066 1 26.0416V6.95225C1 6.48114 1.35897 6.08956 1.84615 6.02226L16.4936 4.00931C17.0897 3.92977 17.6218 4.37029 17.6218 4.9393V28.0607C17.6218 28.6297 17.0897 29.0702 16.4936 28.9907Z" fill="#4C97E3"/>
<path d="M9.36539 12.4588C7 12.4588 5.34615 14.1414 5.34615 16.5581C5.34615 18.9015 6.94872 20.5351 9.23718 20.5351C11.1795 20.5351 13.2756 19.2502 13.2756 16.4358C13.2756 14.0985 11.6667 12.4588 9.36539 12.4588ZM11.391 16.4847C11.391 17.9959 10.5128 19.0973 9.30128 19.0973C8.08974 19.0973 7.21154 18.0082 7.21154 16.5153C7.21154 15.2121 7.86539 13.9027 9.33333 13.9027C10.9615 13.8966 11.391 15.5914 11.391 16.4847Z" fill="white"/>
</svg>
