<svg
  width="117"
  height="20"
  viewBox="0 0 117 20"
  fill="none"
  xmlns="http://www.w3.org/2000/svg"
>
  <g fill="#F2F3F5">
    <path d="M14.344 9.43531C14.344 5.14341 11.4139 2.30804 7.16241 2.30804C2.75772 2.30804 0 5.25993 0 9.43531C0 13.7272 2.91093 16.5432 7.16241 16.5432C8.82854 16.5432 10.2649 16.1159 11.4139 15.3585L12.8885 16.6403L14.1333 15.0866L12.8885 13.9991C13.8269 12.795 14.344 11.222 14.344 9.43531ZM7.16241 13.9797C4.50045 13.9797 2.81517 12.0765 2.81517 9.43531C2.81517 6.6582 4.61535 4.87153 7.16241 4.87153C9.84353 4.87153 11.5288 6.77472 11.5288 9.43531C11.5288 10.5034 11.2607 11.4356 10.7628 12.1736L9.57542 11.1443L8.31146 12.6979L9.24986 13.5136C8.65618 13.8243 7.9476 13.9797 7.16241 13.9797Z" />
    <path d="M20.1851 16.5238C21.2959 16.5238 22.5407 16.1742 23.5557 15.4945V16.2713H26.0453V5.72602L23.4216 6.2439V13.2805C22.7896 13.8243 22.0045 14.135 21.0086 14.135C19.5532 14.135 18.8446 13.4553 18.8446 11.4939V5.72602L16.2209 6.2439V11.8046C16.2209 15.2808 17.37 16.5238 20.1851 16.5238Z" />
    <path d="M38.5499 11.0278C38.5499 7.78458 36.788 5.49298 33.226 5.49298C30.0469 5.49298 27.8446 7.64864 27.8446 10.9889C27.8446 14.3292 29.8937 16.4849 33.36 16.4849C35.7347 16.4849 37.2476 15.6498 38.186 14.3292L36.5391 12.9116C35.8305 13.7855 34.758 14.2516 33.5515 14.2516C31.8471 14.2516 30.7747 13.3776 30.4874 11.8046H38.5307C38.5307 11.8046 38.5499 11.2802 38.5499 11.0278ZM33.226 7.68748C35.007 7.68748 35.8305 8.73618 35.9837 9.88198H30.5065C30.8321 8.36719 31.9046 7.68748 33.226 7.68748Z" />
    <path d="M40.5193 6.2439V16.2713H43.143V11.1637C43.143 9.76546 43.8707 8.30893 45.7858 8.30893C46.1496 8.30893 46.571 8.36719 47.0306 8.50314V5.57066C46.8199 5.49298 46.5518 5.49298 46.322 5.49298C44.9048 5.55124 43.8324 6.19211 43.143 7.22139V5.72602L40.5193 6.2439Z" />
    <path d="M59.2246 5.72602H56.4286L53.6517 13.4748H53.4793L50.5492 5.72602H47.6383L52.0047 15.844H52.8856C52.3494 17.32 51.4685 17.8249 50.1471 17.8249C49.4002 17.8249 48.7108 17.7084 48.1745 17.553L48.1554 19.767C48.6725 19.9223 49.496 20 50.2811 20C51.9664 20 53.8432 19.7864 55.1263 16.3878L59.2246 5.72602Z" />
    <path d="M65.9965 2.57992H60.6151V16.2713H63.3154V12.562H65.6901C69.4436 12.562 71.4545 10.9501 71.4545 7.49328C71.4545 4.26949 69.5585 2.57992 65.9965 2.57992ZM65.556 10.2121H63.3154V4.94921H65.7667C67.7584 4.94921 68.6202 5.84254 68.6202 7.57096C68.6202 9.22169 67.6818 10.2121 65.556 10.2121Z" />
    <path d="M74.4481 5.52535C75.3099 5.52535 76.0377 4.78737 76.0377 3.87461C76.0377 2.96186 75.3099 2.2433 74.4481 2.2433C73.5481 2.2433 72.8203 2.96186 72.8203 3.87461C72.8203 4.78737 73.5481 5.52535 74.4481 5.52535ZM73.0884 7.27965V16.2713H75.7312V6.76178L73.0884 7.27965Z" />
    <path d="M88.381 11.0278C88.381 7.78458 86.6191 5.49298 83.057 5.49298C79.878 5.49298 77.6757 7.64864 77.6757 10.9889C77.6757 14.3292 79.7248 16.4849 83.1911 16.4849C85.5658 16.4849 87.0787 15.6498 88.0171 14.3292L86.3701 12.9116C85.6616 13.7855 84.5891 14.2516 83.3826 14.2516C81.6782 14.2516 80.6057 13.3776 80.3185 11.8046H88.3618C88.3618 11.8046 88.381 11.2802 88.381 11.0278ZM83.057 7.68748C84.8381 7.68748 85.6616 8.73618 85.8148 9.88198H80.3376C80.6632 8.36719 81.7356 7.68748 83.057 7.68748Z" />
    <path d="M104.455 10.5487H101.418L102.932 6.4968L104.455 10.5487Z" />
    <path
      fill-rule="evenodd"
      clip-rule="evenodd"
      d="M111.47 0C113.972 0.000213157 116.001 2.0352 116.001 4.54545V14.146C116.001 16.6561 113.972 18.6912 111.47 18.6914H98.436C95.9336 18.6914 93.9049 16.6563 93.9048 14.146V4.54545C93.9048 2.03507 95.9335 4.76276e-08 98.436 0H111.47ZM102.946 4.40252C102.621 4.40258 102.338 4.50259 102.099 4.70259C101.869 4.90266 101.682 5.20272 101.539 5.60281L98.0918 14.2933H100.017L100.84 12.0925H105.035L105.862 14.2933H107.786L104.354 5.60281C104.211 5.20279 104.019 4.90267 103.78 4.70259C103.55 4.50249 103.272 4.40252 102.946 4.40252ZM109.069 4.57386V14.2933H110.864V4.57386H109.069Z"
    />
  </g>
</svg>
