<svg
  preserveAspectRatio="none"
  width="100%"
  height="100%"
  viewBox="0 0 24 24"
  fill="none"
  xmlns="http://www.w3.org/2000/svg"
>
  <path
    fillRule="evenodd"
    clipRule="evenodd"
    d="M16.9706 2.05887C14.2254 -0.686291 9.7746 -0.686292 7.02944 2.05887L2.05887 7.02944C-0.686291 9.7746 -0.686292 14.2254 2.05887 16.9706L7.02944 21.9411C9.7746 24.6863 14.2254 24.6863 16.9706 21.9411L18.0556 20.8561L15.5805 18.3811L14.9824 18.9792C13.3353 20.6263 10.6648 20.6263 9.01768 18.9792L5.04122 15.0027C3.39413 13.3556 3.39413 10.6851 5.04122 9.03805L9.01768 5.0616C10.6648 3.4145 13.3353 3.4145 14.9824 5.0616L18.9588 9.03805C20.6059 10.6851 20.6059 13.3556 18.9588 15.0027L18.6622 15.2993L21.1373 17.7744L21.9411 16.9706C24.6863 14.2254 24.6863 9.7746 21.9411 7.02944L16.9706 2.05887ZM13.4616 8.49104C12.638 7.66749 11.3028 7.66749 10.4793 8.49104L8.49103 10.4793C7.66748 11.3028 7.66748 12.6381 8.49103 13.4616L10.4793 15.4498C11.3028 16.2734 12.638 16.2734 13.4616 15.4498L15.4498 13.4616C16.2734 12.6381 16.2734 11.3028 15.4498 10.4793L13.4616 8.49104Z"
    fill="currentColor"
  />
</svg>
