<svg width="32" height="32" viewBox="0 0 32 32" fill="none" xmlns="http://www.w3.org/2000/svg">
<path d="M26.4999 15C27.8805 15 28.9997 13.8808 28.9997 12.5002C28.9997 11.1196 27.8804 10.0004 26.4998 10.0004C25.1191 10.0004 23.9996 11.1197 23.9996 12.5004V15H26.4999ZM19.4996 15C20.8803 15 21.9996 13.8807 21.9996 12.5V5.50029C21.9996 4.11956 20.8803 3.00024 19.4996 3.00024C18.1188 3.00024 16.9995 4.11955 16.9995 5.50029V12.5C16.9995 13.8807 18.1188 15 19.4996 15Z" fill="#2EB67D"/>
<path d="M5.49985 17.0004C4.11923 17.0004 3.00002 18.1197 3.00002 19.5003C3.00002 20.8809 4.11934 22.0001 5.49996 22.0001C6.8807 22.0001 8.00011 20.8808 8.00011 19.5001V17.0004H5.49985ZM12.5002 17.0004C11.1195 17.0004 10.0001 18.1198 10.0001 19.5005V26.5002C10.0001 27.8809 11.1195 29.0002 12.5002 29.0002C13.8809 29.0002 15.0002 27.8809 15.0002 26.5002V19.5005C15.0002 18.1198 13.8809 17.0004 12.5002 17.0004Z" fill="#E01E5A"/>
<path d="M17.0002 26.5008C17.0002 27.8814 18.1194 29.0006 19.5 29.0006C20.8807 29.0006 21.9999 27.8813 21.9999 26.5007C21.9999 25.1199 20.8806 24.0005 19.4998 24.0005L17.0002 24.0005L17.0002 26.5008ZM17.0002 19.5004C17.0002 20.8812 18.1195 22.0005 19.5002 22.0005L26.5 22.0005C27.8807 22.0005 29 20.8812 29 19.5004C29 18.1197 27.8807 17.0004 26.5 17.0004L19.5003 17.0004C18.1195 17.0004 17.0002 18.1197 17.0002 19.5004Z" fill="#ECB22E"/>
<path d="M14.9998 5.49985C14.9998 4.11923 13.8806 3.00002 12.5 3.00002C11.1193 3.00002 10.0001 4.11934 10.0001 5.49996C10.0001 6.8807 11.1194 8.00011 12.5002 8.00011L14.9998 8.00011L14.9998 5.49985ZM14.9998 12.5002C14.9998 11.1195 13.8805 10.0002 12.4998 10.0002L5.50005 10.0001C4.11931 10.0001 3 11.1195 3 12.5002C3 13.8809 4.11931 15.0002 5.50005 15.0002L12.4997 15.0002C13.8805 15.0002 14.9998 13.8809 14.9998 12.5002Z" fill="#36C5F0"/>
</svg>
