<svg width="32" height="32" viewBox="0 0 32 32" fill="none" xmlns="http://www.w3.org/2000/svg">
<path fill-rule="evenodd" clip-rule="evenodd" d="M24.8254 2L24.3937 3.51347H27.3967L27.8234 2H24.8254Z" fill="#F2F3F5"/>
<path fill-rule="evenodd" clip-rule="evenodd" d="M20.6953 4.64851L20.2599 6.16198H26.647L27.0749 4.64851H20.6953Z" fill="#F2F3F5"/>
<path fill-rule="evenodd" clip-rule="evenodd" d="M16.8823 7.29751L16.447 8.811H25.8953L26.3232 7.29751H16.8823Z" fill="#F2F3F5"/>
<path fill-rule="evenodd" clip-rule="evenodd" d="M5.25667 9.94603L4.82132 11.4595H25.1441L25.572 9.94603H5.25667Z" fill="#F2F3F5"/>
<path fill-rule="evenodd" clip-rule="evenodd" d="M6.45514 12.5947L6.01993 14.1082H24.3954L24.8233 12.5947H6.45514Z" fill="#F2F3F5"/>
<path fill-rule="evenodd" clip-rule="evenodd" d="M7.06583 30L7.50104 28.4866H4.4953L4.07129 30H7.06583Z" fill="#F2F3F5"/>
<path fill-rule="evenodd" clip-rule="evenodd" d="M11.2006 27.3514L11.6358 25.838H5.24534L4.82132 27.3514H11.2006Z" fill="#F2F3F5"/>
<path fill-rule="evenodd" clip-rule="evenodd" d="M15.0133 24.7028L15.4485 23.1892H5.99611L5.57209 24.7028H15.0133Z" fill="#F2F3F5"/>
<path fill-rule="evenodd" clip-rule="evenodd" d="M26.6396 22.054L27.075 20.5404H6.74759L6.32358 22.054H26.6396Z" fill="#F2F3F5"/>
<path fill-rule="evenodd" clip-rule="evenodd" d="M25.4372 19.4054L25.8727 17.8918H7.4969L7.07289 19.4054H25.4372Z" fill="#F2F3F5"/>
<path fill-rule="evenodd" clip-rule="evenodd" d="M23.6963 16.7566L24.1318 15.2431H6.88949L6.46535 16.7566H23.6963Z" fill="#F2F3F5"/>
</svg>
