<svg width="24" height="24" viewBox="0 0 24 24" fill="none" xmlns="http://www.w3.org/2000/svg">
<path fill-rule="evenodd" clip-rule="evenodd" d="M12 5C13.9855 5 16.6211 5.12027 18.4648 5.21973C19.7381 5.28841 20.7611 6.37365 20.8438 7.75879C20.9229 9.08586 21.001 10.7188 21.001 12C21.001 13.2812 20.9229 14.9141 20.8438 16.2412C20.7611 17.6264 19.7381 18.7116 18.4648 18.7803C16.6211 18.8797 13.9855 19 12 19C10.0146 19 7.37974 18.8797 5.53613 18.7803C4.26289 18.7116 3.23986 17.6264 3.15723 16.2412C3.07806 14.9141 3 13.2812 3 12C3 10.7188 3.07806 9.08586 3.15723 7.75879C3.23986 6.37365 4.26289 5.28841 5.53613 5.21973C7.37974 5.12028 10.0146 5.00002 12 5ZM10.0723 14.7998L15.2148 12L10.0723 9.2002V14.7998Z" fill="#F2F3F5"/>
</svg>
